<?xml version="1.0" encoding="UTF-8" standalone="no"?>
<!-- Created with Inkscape (http://www.inkscape.org/) -->

<svg
   version="1.1"
   id="svg1"
   width="1122.52"
   height="793.70135"
   viewBox="0 0 1122.52 793.70135"
   sodipodi:docname="PCB_IO.svg"
   inkscape:version="1.4.3 (0d15f75, 2025-12-25)"
   xmlns:inkscape="http://www.inkscape.org/namespaces/inkscape"
   xmlns:sodipodi="http://sodipodi.sourceforge.net/DTD/sodipodi-0.dtd"
   xmlns="http://www.w3.org/2000/svg"
   xmlns:svg="http://www.w3.org/2000/svg">
  <defs
     id="defs1" />
  <sodipodi:namedview
     id="namedview1"
     pagecolor="#ffffff"
     bordercolor="#000000"
     borderopacity="0.25"
     inkscape:showpageshadow="2"
     inkscape:pageopacity="0.0"
     inkscape:pagecheckerboard="0"
     inkscape:deskcolor="#d1d1d1"
     showgrid="false"
     inkscape:zoom="1.0664046"
     inkscape:cx="646.56508"
     inkscape:cy="281.78797"
     inkscape:window-width="2560"
     inkscape:window-height="1377"
     inkscape:window-x="-8"
     inkscape:window-y="-8"
     inkscape:window-maximized="1"
     inkscape:current-layer="g1">
    <inkscape:page
       x="0"
       y="0"
       inkscape:label="1"
       id="page1"
       width="1122.52"
       height="793.70135"
       margin="0"
       bleed="0" />
  </sodipodi:namedview>
  <g
     id="g1"
     inkscape:groupmode="layer"
     inkscape:label="1">
    <path
       id="path5"
       d="M 693.22242,489.70277 226.04429,219.97734 m -33.74696,60.00727 467.51489,269.91984 M 192.15125,291.12782 659.66612,561.04763 M 708.74809,480.70244 241.56994,210.977 m 445.16525,305.51936 3.70506,2.13909 m -6.6119,11.45209 -3.70504,-2.13909 M 192.34196,302.46544 658.84645,571.80194 M 192.39032,313.27177 654.17921,579.88574 M 724.27374,471.70209 257.09572,201.97672 M 192.24417,324.41495 649.31755,588.30637 M 739.79947,462.70181 272.62131,192.97638 M 192.43486,335.75263 644.45591,596.72706 M 192.28881,346.89579 639.59424,605.14771 M 755.66193,453.89593 288.14705,183.97608 m -96.0043,174.06295 442.58983,255.52934 M 771.18758,444.89557 303.6727,174.97573 m -86.42151,232.14039 402.50748,232.3878 M 786.71332,435.89531 319.19836,165.97542 M 802.23891,426.89497 335.06089,157.1696 M 817.76469,417.8947 350.58654,148.16927 M 849.01042,399.55717 381.83239,129.8318 M 864.873,390.75136 397.35799,120.83146 M 880.3986,381.75104 412.88376,111.8312 M 895.92429,372.75068 428.40941,102.83084 M 911.45003,363.75039 444.27189,94.024968 M 926.97565,354.75008 459.7976,85.02471 M 942.50137,345.74981 475.32322,76.024394 M 958.02705,336.74943 490.84892,67.024008 M 973.88951,327.94356 506.37465,58.023778 M 1011.3406,313.6378 543.82569,43.717987 M 135.37075,377.8065 l 0.078,79.98517 M 543.48885,43.523503 528.33167,34.772505 m -49.77786,594.164895 0.12076,27.0159 m 548.49673,-333.17552 -15.494,-8.94551 m 63.296,161.84354 -0.078,-79.98518 m -300.85621,167.16878 6.73651,3.88934 m -15.85877,-2.86859 0.6736,0.38893 m -6.06281,-3.50038 0.67359,0.38887 m -6.06287,-3.50038 0.67371,0.38898 m 61.24471,-27.51462 0.0522,-0.86813 m -67.35986,24.88224 0.6737,0.38898 m 60.52284,-38.70993 -6.73654,-3.88929 m -60.18599,38.90436 0.67362,0.38887 m 54.00872,-49.2073 -0.67371,-0.38898 m -64.18596,27.16384 -0.15635,2.60433 m 59.62686,-32.49067 -0.67369,-0.38893 m -64.42224,36.90757 6.73653,3.88935 m 52.97015,-43.51947 -0.67356,-0.38887 m -5.05239,-2.917 -0.67369,-0.38896 m -4.71554,-2.72252 -0.67373,-0.38898 m -20.03283,2.80535 -1.64593,1.29523 m 10.00427,-4.1043 -7.07328,-4.08378 m 22.27784,67.20343 0.72569,-0.47925 1.78847,-0.76398 m 12.56028,-14.75426 0.97236,-1.68415 1.51749,-4.96214 0.59733,-4.14611 -0.2707,-4.19824 0.19457,-0.33688 m -15.57122,30.08172 1.98278,-1.10079 3.48637,-2.92716 3.20185,-3.98984 2.86482,-4.18417 1.02451,-2.55232 m -36.95329,-43.3409 -1.34728,-0.7779 m 66.39666,28.90296 163.71938,-94.54839 m -325.68741,142.50314 -0.0522,0.86825 m -0.0902,-1.39952 0.14235,0.53127 m -0.0114,-8.53883 v 0 m -0.18056,-2.79883 0.18056,2.79883 m 0.0147,-3.13565 -0.19457,0.3369 m -0.0114,-8.53884 v 0 m 0.10796,-13.41065 -0.10796,13.41065 m 23.44403,-53.82983 -4.54901,3.21188 -4.26431,4.27458 -4.12201,4.80573 -3.44833,5.1948 -2.9691,5.92059 -2.10091,5.97258 -1.37528,5.4935 -0.50706,5.54552 m 32.71875,-45.78044 -9.38274,5.36126 m 24.90837,-14.36162 -2.90298,1.91671 m 18.42869,-10.91697 -2.90307,1.91665 m 18.42875,-10.91703 -2.90294,1.91673 m 18.7654,-10.72258 -3.23983,1.72224 m 18.76553,-10.72253 -3.2398,1.72224 m 18.95997,-11.05942 -3.23986,1.72224 m 18.76551,-10.72258 -3.23989,1.72222 m 18.76559,-10.72251 -2.90296,1.91673 m 33.95436,-19.91737 -18.42877,10.91702 m 34.29125,-19.72287 -3.23982,1.72225 m 18.76544,-10.72257 -3.23985,1.72223 m 18.7656,-10.72253 -3.23986,1.72224 m 18.76548,-10.72258 -3.23983,1.72225 m 18.76548,-10.72258 -2.90302,1.9167 m 18.42877,-10.91696 -2.90304,1.91671 m 18.62313,-11.25395 -2.90305,1.91684 m 18.76561,-10.72271 -3.23993,1.72238 m 24.90855,-14.36165 -9.38269,5.36136 m -306.64887,330.44129 0.53128,-0.14235 2.85096,-1.04869 2.76074,-2.44797 2.28147,-3.17382 1.80233,-3.89956 0.73964,-3.61486 m 1.36134,-2.35788 -0.53134,0.14235 -0.19457,0.33688 -0.19455,0.33691 -0.19457,0.3369 -0.19456,0.33688 -0.19457,0.33691 -0.19457,0.33689 0.3369,0.19455 m 3.00737,-3.65302 -1.64607,1.29519 m 302.6307,-164.79703 1.78838,-0.76394 2.90297,-1.9167 2.61833,-2.97931 1.9447,-3.36823 1.2709,-3.75721 0.2087,-3.47255 -0.2326,-1.93067 m -10.55401,-99.95574 -0.2987,2.07316 m 2.1912,-4.57323 -0.19458,0.3369 -0.53127,0.14234 -0.19458,0.33689 -0.19458,0.33691 -0.19459,0.33688 -0.19458,0.33689 -0.19458,0.33691 -0.19445,0.33688 m 1.89264,-2.50024 2.70853,-1.57997 2.61835,-2.97928 2.1391,-3.70515 1.0767,-3.42036 0.2082,-3.47242 -0.2326,-1.93076 m -313.53484,186.79503 1.594,-0.4271 m -2.55229,-1.02445 -0.19457,0.33688 0.14235,0.5313 0.33691,0.19457 0.33689,0.19456 0.33688,0.19457 m -0.9584,-1.45156 -0.51727,-2.99331 0.0519,-0.86808 m -10.50121,18.18865 0.53137,-0.14236 3.04539,-1.38548 m 1.54174,0.44103 0.19456,-0.3369 -0.33688,-0.19455 -0.33688,-0.19457 -0.33692,-0.19457 -0.19456,0.33692 -0.33689,-0.19457 -0.19456,0.33688 m 1.96892,2.035 -0.42717,-1.59388 M 215.26209,225.42889 683.11391,495.54327 M 191.92608,265.84807 659.7779,535.96244 m -444.51581,-310.53355 -4.54895,3.21197 -4.2644,4.2745 -4.12192,4.80581 -3.44833,5.19477 -2.96911,5.92055 -2.10096,5.97256 -1.37523,5.49353 -0.50711,5.54549 m 0.22898,13.60521 467.51488,269.91985 m -467.7438,-283.52506 0.22898,13.60521 m 32.48989,-59.38563 467.85175,270.11438 m -467.85175,-270.11438 -9.3828,5.36124 m 10.7822,-5.45155 -0.33688,-0.19457 -0.53131,0.14235 -0.53134,0.14236 m -32.48988,59.3856 v 0 l -0.19455,0.33688 0.3369,0.19457 m 2.0209,1.16677 -0.0145,3.13563 m -2.47597,3.51061 467.85174,270.11432 M 192.80065,286.11344 v 0 l -0.19456,0.33691 -0.19456,0.33689 -0.19457,0.33688 -0.19457,0.33691 -0.19455,0.33689 m 42.17129,-66.81997 -3.23983,1.72224 m -37.42781,63.27125 0.19456,-0.33689 0.33689,0.19457 0.19456,-0.33691 0.19457,-0.3369 0.19457,-0.33688 -0.14236,-0.5313 m -2.29544,6.30947 467.85173,270.11432 m -468.03218,-272.91315 0.18056,2.79883 m 1.32315,-4.62532 -0.53127,0.14236 m 44.4668,-73.12957 467.85173,270.1143 m -467.85173,-270.1143 -0.53135,0.14233 -0.19457,0.33693 -0.19457,0.33688 -0.19456,0.33688 -0.19457,0.33692 -0.19457,0.33688 -0.19455,0.33688 0.14235,0.53131 m -43.70287,74.91768 v 0 l 0.14235,0.53139 m 43.56055,-75.44913 -0.15636,2.60428 m 4.61511,-7.21565 467.85174,270.11435 m -467.85174,-270.11435 -2.90295,1.9167 m -3.26791,7.9936 0.53137,-0.14234 0.19455,-0.33689 0.19457,-0.33688 0.19456,-0.33691 0.19456,-0.33689 0.19457,-0.33688 0.19456,-0.33691 -0.14234,-0.53131 m 6.01452,-7.30594 -0.3369,-0.19457 -0.19457,0.3369 -0.33688,-0.19455 -0.5314,0.14234 m -45.9983,81.22726 -0.0147,3.13564 m -2.13916,3.70506 467.85177,270.11432 M 192.99145,297.45115 v 0 l -0.53133,0.14235 -0.19456,0.33688 -0.19457,0.33692 -0.19456,0.33688 0.33689,0.19457 -0.19457,0.33688 m 1.16678,-2.02095 0.53129,-0.14235 0.19457,-0.33691 0.19457,-0.3369 0.19455,-0.33688 0.19457,-0.3369 -0.33691,-0.19457 m -2.13909,3.70508 -0.15635,2.60436 m 1.32319,-4.62531 -0.19455,0.33688 m -1.12874,4.28849 0.33689,0.19457 -0.19457,0.33688 0.33688,0.19457 m 57.18345,-90.48811 -2.90306,1.91665 m -52.25948,89.73819 -0.0146,3.13564 m 58.44432,-102.7843 467.85176,270.11433 m -467.85176,-270.11433 -0.19457,0.3369 -0.53135,0.14234 -0.19457,0.33692 -0.19457,0.33688 -0.19456,0.33688 -0.19456,0.33692 0.14235,0.53127 -0.19457,0.33692 m -58.39199,101.91592 v 0 l -0.19455,0.33688 -0.19457,0.33692 -0.19456,0.33688 -0.19457,0.33688 m 63.96591,-107.6807 467.51499,269.9199 m -467.51499,-269.9199 -3.23983,1.72222 m -1.55578,2.6947 -0.15635,2.60431 m -57.51009,98.83257 v 0 l 0.19457,-0.3369 0.19457,-0.33691 0.19455,-0.33688 0.19457,-0.33689 m -2.28153,3.17373 0.18056,2.7988 m 1.32312,-4.62517 -0.72572,0.47892 m 56.68005,-96.61696 0.53136,-0.14235 0.19457,-0.33691 0.19456,-0.33688 0.19457,-0.3369 0.19457,-0.3369 0.19455,-0.33688 0.19457,-0.3369 -0.14235,-0.53129 m -58.83324,103.45775 -0.19456,0.33688 0.33691,0.19457 m 64.7054,-111.29505 -0.33691,-0.19455 -0.19457,0.33691 -0.33688,-0.19456 -0.19457,0.33688 m -61.62174,112.17721 -0.20828,3.47239 m -1.50366,1.82648 v 0 l -0.19456,0.33692 -0.19457,0.33688 -0.19455,0.33688 -0.19457,0.33693 m 1.50357,-1.82643 v 0 l 0.53136,-0.14235 0.19456,-0.33691 0.19457,-0.33689 -0.14235,-0.5313 m -0.77794,1.34737 -0.72569,0.47923 m -0.77785,1.34728 0.18057,2.79883 m 73.28608,-120.71213 -3.23983,1.72224 m -70.04625,118.98989 -0.19457,0.33688 0.33691,0.19457 M 268.3183,194.98334 736.17006,465.09772 M 268.3183,194.98334 l -0.19457,0.3369 -0.53134,0.14236 -0.19455,0.33691 -0.19457,0.33689 -0.19457,0.33688 -0.19455,0.33691 0.14235,0.53133 -0.19457,0.33688 m 0,0 0.18056,2.79872 m 4.61507,-7.21561 467.51494,269.91987 m -467.51494,-269.91987 -3.23981,1.72222 m -2.93101,8.18812 0.19456,-0.33688 0.19457,-0.33691 0.19455,-0.3369 0.53131,-0.14235 -0.14235,-0.53129 0.19457,-0.3369 0.19457,-0.3369 0.19455,-0.33688 m -72.67846,125.10488 0.32283,3.33011 m 78.03332,-135.93551 -0.33692,-0.19457 -0.5313,0.14236 -0.19457,0.33688 m -78.47434,137.47715 -0.19456,0.33688 -0.33689,-0.19457 -0.19456,0.33692 -0.19457,0.33688 -0.19455,0.3369 0.14234,0.53129 m 1.50371,-1.82646 v 0 l 0.19457,-0.33688 0.19457,-0.33688 0.19455,-0.33692 0.19457,-0.33688 0.19457,-0.33688 m -2.47596,3.51056 -0.15635,2.60437 m 1.65986,-4.4308 -0.5313,0.14235 m -1.12862,4.28851 0.14236,0.53136 0.3369,0.19457 m 2.02097,1.16681 -0.0147,3.13565 m 86.47166,-145.88394 -3.23986,1.72219 m -84.7354,145.98821 -0.19455,0.33688 -0.19457,0.33691 -0.19457,0.33689 -0.19456,0.33688 -0.19457,0.33691 m 1.50357,-1.82641 v 0 l 0.19457,-0.3369 0.19456,-0.33688 0.19457,-0.33691 0.19457,-0.33689 0.19455,-0.33691 M 283.84325,185.98303 751.69497,456.09736 M 283.84462,185.98311 v 0 l -0.19457,0.33687 -0.72581,0.47927 -0.19455,0.33688 -0.19457,0.33692 0.14235,0.53129 -0.19457,0.33692 -0.19455,0.33688 m -88.81927,153.06147 -0.53126,0.14235 m -0.97234,1.68413 0.18057,2.79886 M 287.08407,184.26081 754.9358,454.37514 m -467.85173,-270.11433 -3.23986,1.72222 m -1.55575,2.69465 0.18056,2.79877 m -1.55576,2.69467 0.19457,-0.33691 0.19457,-0.33689 0.53132,-0.14234 0.19457,-0.3369 0.19457,-0.3369 0.0522,-0.86822 0.19457,-0.33691 m -90.32279,154.88803 v 0 l -0.19457,0.33691 0.33692,0.19457 m 95.85824,-162.91971 v 0 l -0.33692,-0.19457 -0.53141,0.14235 -0.19457,0.33693 m -92.77464,163.80173 -0.0146,3.1357 m -1.16677,2.02087 -0.53127,0.14235 -0.19457,0.33688 -0.19456,0.33691 -0.19457,0.33689 0.14236,0.53127 m 1.1668,-2.0209 0.19455,-0.33688 0.33688,0.19456 0.19457,-0.33688 0.19457,-0.33691 0.19456,-0.3369 -0.33688,-0.19455 0.19457,-0.33689 m -0.97234,1.6841 -0.19455,0.33692 m -0.97234,1.6841 -0.15635,2.60442 m 0,0 v 0 l 0.14236,0.53129 m 104.29651,-172.86813 -3.23982,1.7222 m 6.17081,-9.91032 467.85187,270.11438 M 299.37048,176.98246 v 0 l -0.19457,0.33688 -0.5313,0.14236 -0.38889,0.67358 -0.19457,0.33688 0.14236,0.53134 -0.19457,0.33688 -0.19457,0.33692 m -103.31393,179.72286 -0.0145,3.13568 m 103.32792,-182.85854 0.18057,2.79881 m 4.61507,-7.21567 467.85182,270.11437 M 302.6095,175.26044 l -3.23986,1.72219 m -2.93091,8.18817 0.19457,-0.33692 0.53129,-0.14234 0.19457,-0.33692 0.19457,-0.33688 0.38895,-0.67369 0.19456,-0.33688 -0.14236,-0.53131 M 192.98281,364.36207 v 0 l -0.19457,0.33691 m 0.72569,-0.47924 0.19457,-0.33688 0.19455,-0.33692 0.19457,-0.33688 0.19457,-0.33688 0.19456,-0.33692 m -0.97235,1.68413 -0.53128,0.14235 M 303.67283,174.97509 v 0 l -0.33688,-0.19457 -0.19456,0.3369 -0.5313,0.14234 m 9.54921,0.57308 -3.43431,2.05904 m 6.70216,-10.05261 467.51492,269.91984 m -467.51492,-269.91984 -0.53127,0.14234 -0.19456,0.33689 -0.19457,0.33691 -0.19457,0.33688 -0.38891,0.6736 -0.19457,0.33688 -0.19457,0.33688 0.3369,0.19457 m 0,0 -0.15635,2.60436 m 4.61516,-7.2157 467.85173,270.11432 m -467.85173,-270.11432 -2.90304,1.9167 m -3.26782,7.99357 v 0 l 0.53136,-0.14234 0.19455,-0.33689 0.38887,-0.67362 0.19457,-0.33688 0.19456,-0.33689 -0.14234,-0.53134 0.19455,-0.33688 m 5.48324,-7.16372 v 0 l -0.33688,-0.19455 -0.19456,0.33691 -0.33692,-0.19457 m 9.35479,0.90996 -3.4343,2.05906 m 6.70216,-10.05266 467.51487,269.91987 m -467.51487,-269.91987 -0.53133,0.14235 -0.19456,0.33688 -0.19457,0.33691 -0.19457,0.33689 -0.19455,0.33688 -0.38895,0.67371 -0.19457,0.33692 0.33688,0.19455 m 0,0 -0.15635,2.60434 m 4.61514,-7.21575 467.85175,270.11434 m -467.85182,-270.11434 -2.90298,1.91676 m -3.26782,7.99357 0.33688,0.19456 0.19457,-0.33688 0.38892,-0.67359 0.19456,-0.3369 0.19457,-0.3369 0.19457,-0.33688 0.19455,-0.3369 -0.14235,-0.53132 m 5.82015,-6.96914 -0.33688,-0.19455 -0.33689,-0.19457 -0.19456,0.33689 -0.33692,-0.19457 m 9.35492,0.91002 -3.43433,2.05905 m 6.70184,-10.05195 467.85182,270.11437 m -467.85182,-270.11437 -0.53131,0.14234 -0.19457,0.33689 -0.19455,0.33688 -0.19457,0.33691 -0.19457,0.3369 -0.19456,0.33688 -0.19457,0.3369 0.14236,0.53131 m 4.45883,-4.61135 467.8518,270.11436 m -467.8518,-270.11436 -2.90305,1.91668 m -1.55578,2.69467 -0.15635,2.60442 m -1.5557,2.69456 0.5313,-0.14236 0.19457,-0.33692 0.19456,-0.33688 0.19457,-0.33688 0.19455,-0.33692 0.19457,-0.33688 0.19457,-0.33688 -0.14235,-0.53134 m 5.82005,-6.96921 -0.33691,-0.19456 -0.53133,0.14235 -0.33688,-0.19457 m 9.35476,0.90996 -3.09739,2.25376 m 6.36531,-10.24713 467.85174,270.11432 m -467.85174,-270.11432 -0.19457,0.33691 -0.53133,0.14235 -0.19456,0.33692 -0.19457,0.33688 -0.19456,0.33688 -0.19456,0.33692 0.14235,0.5313 -0.19457,0.33689 m 20.32127,-13.41728 467.51498,269.91993 M 380.76839,130.11642 362.00291,140.83903 m -1.55579,2.69467 -0.15635,2.60432 m -1.55573,2.69456 0.53134,-0.14236 0.19457,-0.3369 0.19455,-0.3369 0.19457,-0.33688 0.19456,-0.33691 0.19457,-0.33689 0.19457,-0.33688 -0.14236,-0.53134 m 21.54031,-16.3063 -0.53132,0.14235 -0.3369,-0.19455 -0.19455,0.33688 m 9.3549,0.91002 -3.23986,1.72228 m 6.17083,-9.91031 467.85177,270.11432 m -467.85177,-270.11432 -0.19455,0.33688 -0.19457,0.33689 -0.53134,0.14234 -0.19455,0.3369 -0.19457,0.3369 0.14235,0.53131 -0.19457,0.33688 -0.19455,0.33692 m 0,0 0.18056,2.79881 m 4.61513,-7.21577 467.85173,270.11435 m -467.85173,-270.11435 -3.23984,1.72227 m -2.931,8.18807 0.19457,-0.33688 0.19456,-0.33688 0.53131,-0.14236 0.19457,-0.33688 0.19455,-0.33689 -0.14234,-0.53132 0.19456,-0.3369 0.19457,-0.3369 m 5.67761,-7.50052 v 0 l -0.53126,0.14236 -0.3369,-0.19457 -0.19455,0.33688 m 9.35476,0.90993 -3.23986,1.72225 m 6.17086,-9.91031 467.85173,270.11433 M 408.58033,113.8373 l -0.19455,0.33693 -0.19457,0.33688 -0.53134,0.14235 -0.19455,0.33688 -0.19457,0.33688 0.14235,0.53131 -0.19457,0.33688 -0.19457,0.33692 m 0,0 0.18057,2.7988 m 4.61519,-7.21564 467.85173,270.11431 m -467.85173,-270.11431 -3.23986,1.72225 m -2.931,8.18803 0.19457,-0.33689 0.53134,-0.14234 0.19455,-0.33692 0.19457,-0.33688 0.19455,-0.33693 0.19457,-0.33688 -0.14235,-0.53133 0.19457,-0.33688 m 5.6778,-7.50049 v 0 l -0.53131,0.14236 -0.53139,0.14263 m 9.35486,0.91 -3.23983,1.72227 m 6.5076,-9.71588 467.51497,269.9199 m -467.51444,-269.91947 -0.53131,0.14235 -0.19456,0.33691 -0.19457,0.3369 -0.19456,0.33688 -0.19456,0.33691 -0.19457,0.33689 -0.19457,0.33688 0.14235,0.53136 m 0,0 -0.15634,2.60439 m 4.61513,-7.21576 467.85181,270.11438 m -467.85181,-270.11438 -2.90306,1.91673 m -3.26773,7.99363 0.19455,-0.33688 0.53128,-0.14235 0.19456,-0.33691 0.19456,-0.33688 0.19457,-0.33689 0.19456,-0.33691 -0.14234,-0.53128 0.19456,-0.33688 m 5.6776,-7.50049 v 0 l -0.53134,0.14236 -0.53128,0.14234 m 9.35486,0.91004 -3.23985,1.72224 m 6.50768,-9.715838 467.51491,269.919838 M 439.96936,96.03201 l -0.53126,0.142353 -0.19457,0.336923 -0.19455,0.33688 -0.19457,0.33688 -0.19457,0.336922 -0.19456,0.33688 -0.19457,0.33688 0.14236,0.531336 m 0,0 -0.15635,2.604336 M 442.8719,94.115575 910.72361,364.2299 M 442.8719,94.115575 l -2.90305,1.916734 m -3.26784,7.993571 0.53137,-0.14235 0.19457,-0.33688 0.19455,-0.33688 0.19457,-0.33692 0.19456,-0.33688 0.19457,-0.33688 0.19457,-0.33693 -0.14236,-0.53129 m 6.01454,-7.306072 -0.33692,-0.19457 -0.33688,-0.194555 -0.19457,0.336909 -0.53129,0.142353 m 9.35473,0.909963 -3.2398,1.722249 m 6.50765,-9.715837 467.85176,270.11432 M 455.49487,87.03131 l -0.53132,0.142354 -0.38895,0.673717 -0.19457,0.33688 -0.19456,0.33688 -0.19457,0.336922 -0.19457,0.33688 0.14236,0.531478 m 4.45875,-4.611432 467.85179,270.114351 M 458.39744,85.114989 l -2.90297,1.916734 m -1.55578,2.694698 -0.15635,2.604333 m -1.5557,2.69457 0.5313,-0.142339 0.19457,-0.336922 0.19456,-0.33688 0.19457,-0.33688 0.19457,-0.336923 0.19455,-0.33688 0.19457,-0.336908 -0.14235,-0.531279 m 6.01459,-7.305987 -0.33688,-0.194555 -0.53133,0.142353 -0.53137,0.142339 m 9.35495,0.910048 -2.90304,1.916705 M 471.02074,78.03091 938.8727,348.14555 M 471.02088,78.031251 v 0 l -0.53127,0.142353 -0.19457,0.336894 -0.38895,0.673675 -0.19457,0.336908 -0.19455,0.336894 0.14235,0.531322 -0.19457,0.336894 m 0,0 -0.15635,2.604419 M 474.26027,76.309257 941.77526,346.2292 M 474.26027,76.309257 l -3.23985,1.722207 m -3.26775,7.993687 0.53131,-0.142353 0.19457,-0.33688 0.19455,-0.33688 0.19457,-0.336923 0.38898,-0.673674 0.19456,-0.33688 0.19457,-0.336923 -0.33688,-0.194555 m 6.01429,-7.305845 -0.33688,-0.194555 -0.5313,0.142353 -0.19456,0.33688 m 9.35488,0.909991 -3.23989,1.722278 m 6.36534,-10.247073 467.8517,270.114328 m -467.8517,-270.114328 -0.19456,0.33688 -0.53137,0.142354 -0.19455,0.33688 -0.19457,0.336922 -0.3889,0.673561 -0.19457,0.336908 0.14235,0.531336 M 489.98026,66.972034 957.4951,336.89184 M 489.98026,66.972034 l -3.23992,1.722334 m -1.55573,2.694585 -0.0147,3.135626 m -1.55573,2.694556 0.19457,-0.336909 0.19456,-0.336894 0.19457,-0.33688 0.53133,-0.142353 0.0522,-0.868244 0.19456,-0.33688 0.19457,-0.336894 m 5.67771,-7.500514 -0.33692,-0.194555 -0.53126,0.142353 m 9.35476,0.909977 -3.43433,2.059115 M 502.26579,59.693384 970.11746,329.80769 M 502.26579,59.693384 l -0.19456,0.33688 -0.19456,0.33688 -0.53131,0.142354 -0.19457,0.336879 -0.38889,0.673604 0.14235,0.531307 -0.19456,0.336908 m 0,0 0.18056,2.798889 M 505.50536,57.971306 973.3571,328.08561 M 505.50536,57.971306 502.26547,59.69364 m -2.93092,8.187972 v 0 l 0.19457,-0.336894 0.53131,-0.142339 0.38891,-0.673689 0.19457,-0.336908 -0.14235,-0.531279 0.19457,-0.33688 0.19456,-0.336922 m 5.48329,-7.16362 v 0 l -0.33688,-0.19457 -0.53133,0.142354 m 9.35487,0.910048 -3.4343,2.059072 M 517.79159,50.692913 985.64332,320.80726 M 517.79159,50.692913 l -0.19456,0.336879 -0.19457,0.336923 -0.53133,0.142353 -0.19456,0.336909 -0.19457,0.33688 0.14236,0.531307 -0.19457,0.33688 -0.19456,0.336894 m 0,0 0.18056,2.79886 M 527.17377,45.331993 995.02544,315.44632 M 527.17377,45.331993 517.79098,50.69341 m -2.93092,8.187929 0.19457,-0.336908 0.33688,0.194569 0.38892,-0.673575 0.19457,-0.336908 0.19456,-0.33688 0.19457,-0.336894 -0.14235,-0.531293 0.19456,-0.336894 m 27.40865,-12.469123 -3.75722,-1.270967 -4.00376,-0.06586 -4.25041,1.138769 -4.63924,1.812572 m -381.95359,362.862103 0.0575,62.90748 m 31.20398,-8.93046 -31.2615,-53.97702 m 109.0684,98.89887 -77.8069,-44.92185 m 77.92779,71.93775 -0.12076,-27.0159 m 0.12076,27.0159 -109.13177,-63.00729 m 46.68798,-171.09839 -0.0408,-34.15541 m 23.336,-40.41918 -4.54891,3.21197 -4.26437,4.27449 -4.12192,4.80582 -3.44839,5.19491 -2.96908,5.92059 -2.10096,5.97257 -1.3752,5.49353 -0.50714,5.54547 M 215.26152,225.42894 527.17453,45.33232 m -335.34507,317.91546 -53.25118,30.78224 m 0.10412,-1.73616 -0.10412,1.73616 m 53.38813,-94.02654 -53.28387,92.29038 m 115.60677,114.79937 5.24684,2.58018 5.63586,1.90647 6.21922,0.89602 6.4136,0.55927 6.46578,-0.30886 6.18095,-1.37168 5.50738,-1.7605 5.36516,-2.29171 m -70.3334,-76.53512 -54.50827,31.40385 m 169.4358,19.23101 -44.59413,25.90026 m -49.11718,-52.60912 38.73502,22.3637 m -38.73502,-22.3637 -4.23642,-1.99677 -4.48287,-0.79182 -5.20875,-0.31267 -4.92398,0.74993 -4.44484,1.47576 -3.4343,2.05906 -2.22945,2.30563 -1.21889,2.88916 0.18056,2.79869 1.91665,2.90315 2.83705,2.08706 m 0,0 39.07177,22.55814 m 0,0 3.89954,1.80227 4.81994,0.98623 5.20857,0.3127 4.92404,-0.74999 4.25041,-1.13882 3.43432,-2.05906 2.42385,-2.64265 1.21883,-2.88906 -0.51727,-2.99329 -1.57996,-2.70858 -3.17381,-2.2815 m 10.3821,30.24555 -0.21586,26.82144 m 0,0 -5.02832,2.48617 -5.5074,1.76049 -6.51777,1.17713 -6.46573,0.30889 -6.0768,-0.36483 -6.55602,-1.09046 -5.63585,-1.90647 -4.91003,-2.38574 m 115.08586,-39.09406 -68.38794,39.10904 m -124.63572,-243.06611 15.49398,8.94548 m -46.80314,45.2836 -3.74696,7.26777 -2.87887,7.31982 -1.67389,7.5665 -1.14268,7.42419 -0.0292,6.27131 1.03464,5.98666 1.95488,5.1705 m 6.48073,-47.00678 31.30918,-54.22905 m 15.45313,-25.21004 -15.49397,-8.94539 m 23.33601,-40.4192 15.49397,8.94546 m -38.82998,31.47374 0.50709,-5.54557 1.03846,-5.68795 2.4377,-5.77811 2.96913,-5.92055 3.4483,-5.19481 3.78522,-5.00023 4.6011,-4.08007 4.54901,-3.21191 m -7.93809,146.7643 39.16124,67.51977 m -92.41242,-36.73753 2.14942,4.83374 2.14934,4.83385 2.34389,4.49684 m 0.0575,62.90742 -4.18426,-2.86484 -3.12166,-3.14973 -1.86464,-3.77103 -0.65991,-3.52453 m 41.02429,-166.73369 -0.0408,-34.15537 M 527.17319,45.332078 511.67916,36.386596 M 199.76628,216.48324 511.67922,36.386596 M 251.98974,481.51465 252.2056,454.69323 m -0.21586,26.82142 21.5569,12.44588 m -21.5569,-12.44588 -3.89954,-1.80233 -3.6148,-0.73971 m 267.20382,-442.586014 4.30248,-2.006985 4.58714,-0.944356 4.00376,0.066 3.75721,1.270995 m 188.54191,603.76491 -0.41319,-4.72958 -1.33339,-3.91348 -1.91682,-2.90305 -3.36823,-1.94468 -3.27804,-0.54519 -4.19815,0.2707 -4.10806,1.67021 -4.35456,2.87503 -3.87542,3.60095 -3.92739,4.46902 -3.44831,5.19466 -2.58011,5.2469 -1.90665,5.63573 -0.84395,5.35119 0.21878,5.0663 0.80198,4.05586 1.86469,3.77125 2.64251,2.42379 3.22592,1.41334 3.6669,-0.1283 4.25041,-1.13877 4.30235,-2.00704 4.21218,-3.40633 4.06993,-3.93769 3.25379,-4.85792 3.11148,-5.38921 2.2434,-5.44127 1.37523,-5.49347 0.3127,-5.20874 m 315.1526,-181.81892 -0.4129,-4.72952 -1.3335,-3.91357 -2.2535,-3.0975 -3.0314,-1.75017 -3.6149,-0.73966 -3.8613,0.46514 -4.1081,1.67024 -4.6913,2.68059 -3.8755,3.60095 -3.9275,4.46896 -3.11131,5.38916 -2.58023,5.24687 -1.90643,5.63583 -0.84405,5.35114 -0.11806,4.87186 0.94433,4.58725 1.72223,3.23983 2.64253,2.42376 3.22599,1.41344 4.0038,0.066 4.0558,-0.80201 4.1602,-2.53832 4.549,-3.21185 3.7329,-4.1322 3.5908,-4.66343 3.1115,-5.38923 2.2433,-5.44134 1.3751,-5.49342 0.3127,-5.20879 m -315.10134,61.93839 -0.41314,-4.72961 -1.33339,-3.91342 -2.11121,-2.56628 -2.83693,-2.08697 -3.61481,-0.73979 -4.19826,0.2707 -4.10814,1.67022 -4.35459,2.87517 -4.06979,3.93769 -3.92745,4.46899 -3.25385,4.85795 -2.77463,5.58366 -1.37522,5.49347 -1.18078,5.15648 0.21878,5.06645 0.60752,4.39266 2.05909,3.43433 2.64254,2.42393 3.22594,1.41335 3.47237,0.20828 4.25045,-1.13885 4.49682,-2.34385 4.01774,-3.06962 4.26432,-4.27449 3.59067,-4.66343 2.77465,-5.58376 2.24343,-5.44128 1.37513,-5.49345 0.31271,-5.20871 m 104.96063,-62.00572 0.18231,78.2489 m 0,0 173.82774,-100.38888 m 0,0 v -63.77565 m 0,0 2.64266,2.42393 3.61473,0.73967 3.6669,-0.1283 4.4449,-1.47547 4.1601,-2.53838 4.2121,-3.40632 3.9277,-4.46897 3.2537,-4.85794 2.7748,-5.5837 2.0487,-5.10452 1.0385,-5.68791 0.118,-4.87189 -0.4131,-4.72949 -1.5277,-3.57677 -2.4481,-2.76065 -3.2259,-1.41331 -3.6149,-0.73967 -4.0559,0.80197 -4.3023,2.00702 -4.0177,3.06965 -4.4067,3.74318 -3.5907,4.66344 -2.91708,5.05239 -2.77453,5.58364 -1.37531,5.49342 -0.84391,5.35114 m 0,0 -170.39348,98.32983 m -35.68419,40.02645 -0.14236,-0.53133 -1.28132,-4.78164 -2.20144,-3.96566 -2.9272,-3.48638 -3.7051,-2.13915 -4.14608,-0.59736 -4.87186,-0.1182 -4.7816,1.28123 -5.02832,2.48622 -5.2747,3.69117 -5.13247,4.22239 -4.51085,5.47946 -4.17405,5.67387 -3.69491,6.39979 -3.02117,6.78865 -2.29544,6.30936 -1.09049,6.55604 -0.55929,6.41365 0.36105,5.59772 1.2812,4.78161 2.34384,4.49697 2.78489,2.95509 3.70508,2.13916 4.28841,1.12864 4.72956,-0.41316 4.78167,-1.28116 m -107.63485,77.52764 0.33111,98.99341 m 30.97803,-153.22242 -31.30914,54.22901 m 31.26822,-88.38445 0.0408,34.15544 m 23.29508,-74.57461 -4.54895,3.21198 -4.26432,4.27448 -4.12193,4.80581 -3.44837,5.19477 -2.96909,5.92059 -2.10098,5.97252 -1.37518,5.49353 -0.50718,5.54549 M 1010.5186,324.392 698.6056,504.48857 m 335.4909,-166.48389 -0.75,-4.92404 -1.139,-4.25029 -2.059,-3.43433 -2.9792,-2.61836 -3.7573,-1.27099 -4.0037,-0.0659 -4.2504,1.1388 -4.6393,1.8126 m 23.6187,47.76801 -0.041,-34.15532 m 31.0289,52.04628 -30.9881,-17.89096 m 31.1247,117.22137 -0.1366,-99.33041 m 0.1366,99.33041 -420.92954,242.90423 m 15.48403,-162.16791 15.494,8.94549 m -68.77785,83.34489 5.45527,-0.89225 5.70189,-2.09736 5.75396,-2.9653 5.85816,-4.70171 5.37897,-5.42737 4.89986,-6.15307 4.42061,-6.87881 m -37.46872,29.11587 53.28385,-92.29038 m 23.29517,-74.57454 15.49392,8.94543 m -23.33601,40.41916 -15.49391,-8.94542 m 0,0 0.50705,-5.54551 1.37529,-5.49347 2.10087,-5.97262 2.96914,-5.92055 3.44829,-5.19484 4.12202,-4.80573 4.26431,-4.27454 4.54903,-3.21191 m 16.73326,23.13404 -0.32284,-3.33016 -1.24309,-2.51411 -2.16322,-1.69802 -2.94129,-0.35076 -0.86811,-0.0522 m -14.39053,24.92513 1.10073,1.98275 2.16328,1.69807 2.7468,0.68763 3.1877,-0.85411 3.23992,-1.72231 3.14959,-3.12174 2.47595,-3.51053 2.33361,-4.04194 1.12858,-4.28855 0.40289,-3.80927 m -40.06929,17.28512 0.0408,34.15538 m 350.7022,-245.72568 -15.49406,-8.94548 m 0,0 -311.91297,180.09662 m 9.65992,19.05023 -0.32285,-3.33017 -0.14236,-0.53126 m -14.39053,24.92516 2.12515,-0.56946 3.23995,-1.72238 3.14951,-3.12171 2.47596,-3.51056 2.33362,-4.0419 1.46548,-4.09411 0.0659,-4.00373 m -95.13701,217.67731 -0.0577,-62.90753 m 0,0 2.70846,-1.57989 2.9031,-1.91679 3.23984,-1.72225 m 37.90414,68.14148 -5.02822,2.48625 -5.84424,1.566 -6.18112,1.37145 -6.46574,0.30888 -6.41361,-0.5593 -6.21923,-0.89603 -5.63581,-1.90643 -4.91,-2.3857 m 8.7938,-68.12643 0.10412,-1.73617 m 164.17256,-174.67594 -0.14234,-0.53137 -1.28127,-4.7816 -0.62161,-1.25712 m -38.69896,67.02854 1.39952,-0.0902 4.78158,-1.28121 1.78829,-0.76394 m -171.74173,141.11416 40.23963,-23.0251 m -8.85141,5.21897 -31.38822,17.80613 m 31.44583,45.10136 -109.13174,-63.00723 m -0.12105,-27.01589 0.12105,27.01589 m 77.68591,17.90587 -77.80682,-44.92176 m 211.41162,-3.68981 -0.32286,-3.33017 -1.57985,-2.70846 -1.82654,-1.50375 -2.74673,-0.68757 -1.06249,0.28471 m -14.39056,24.92516 1.10073,1.98283 2.16322,1.69809 2.94127,0.35076 2.99335,-0.5173 3.0975,-2.25364 3.29195,-2.59045 2.47601,-3.51064 2.33358,-4.04182 1.12867,-4.28849 0.40283,-3.80932 m -211.53252,-23.32612 -4.01779,3.06965 -3.14967,3.12165 -1.80233,3.89963 -0.73968,3.61477 0.65962,3.52452 1.8646,3.7712 3.12166,3.14972 4.18436,2.86493 m -0.12105,-27.01592 44.93101,-25.70582 m 20.43737,68.83555 4.23644,1.99677 4.48299,0.79185 5.20864,0.31264 4.92397,-0.74993 4.25049,-1.13891 3.43424,-2.05906 2.4238,-2.64254 1.21887,-2.88902 -0.18028,-2.79895 -1.91676,-2.90303 -2.83689,-2.08697 m 0,0 -39.07187,-22.55819 m 0,0 -3.89963,-1.80231 -4.81972,-0.98631 -5.20875,-0.31259 -4.92395,0.74987 -4.44478,1.47577 -3.43428,2.05908 -2.2295,2.30575 -1.21886,2.88902 0.51729,2.99332 1.57986,2.70852 3.17378,2.28151 m 0,0 38.73504,22.36365 m 139.09086,-23.88732 -0.32286,-3.33017 -0.14234,-0.53133 m -14.39053,24.92513 2.12512,-0.56948 3.43431,-2.05905 2.95515,-2.78489 2.47597,-3.51067 2.33356,-4.04183 1.12872,-4.28847 0.4029,-3.80924 m -153.13334,13.98355 0.21586,-26.82143 m 21.67775,39.46176 -21.89367,-12.64033 m -51.0841,20.80589 -4.18435,-2.86493 -3.12163,-3.1497 -1.86464,-3.77115 -0.65962,-3.52456 m 505.43204,-228.24838 11.78895,6.80633 m -456.30659,213.9465 -3.89956,-1.80233 -3.61484,-0.73975 m 460.25646,-288.46237 1.37148,6.18106 2.1875,7.10123 m 19.1099,-33.87709 -0.6596,-3.52463 -1.2431,-2.5142 -2.1633,-1.69801 -2.6045,-0.15637 -0.868,-0.0522 m -14.39059,24.92513 1.10079,1.98275 2.16332,1.69816 2.40982,0.49308 3.18776,-0.85412 3.2399,-1.72235 2.9552,-2.78483 3.0071,-3.65295 1.8023,-3.89951 1.4656,-4.09404 0.5975,-4.14613 m -19.9735,-21.41182 4.30261,-2.00702 4.58709,-0.94435 4.0038,0.066 3.7572,1.27096 m -3.7507,18.9424 -0.3227,-3.33014 -0.1424,-0.5313 m -14.39055,24.92511 1.78824,-0.76393 3.23993,-1.72238 2.95518,-2.78479 3.0073,-3.65297 1.8023,-3.89954 1.4655,-4.094 0.5974,-4.14611 m 7.0219,123.96436 -0.6597,-3.52467 -1.243,-2.51408 -2.1634,-1.6981 -2.4098,-0.49311 -1.0626,0.28469 m -14.39059,24.92517 1.10064,1.98286 2.16347,1.69813 2.6044,0.15635 2.99318,-0.51727 3.2399,-1.72219 3.1496,-3.12173 2.8128,-3.31621 1.9968,-4.23631 1.4653,-4.09403 0.403,-3.80932 m -7.0733,-4.08378 -0.6597,-3.52466 -0.1424,-0.53134 m -14.05369,25.11962 1.78837,-0.764 3.23979,-1.72219 3.14983,-3.12169 2.8127,-3.3162 1.9968,-4.2363 1.4654,-4.09409 0.4029,-3.80926 m 57.2524,-62.60411 3.7049,2.1391 3.0316,1.75025 2.0209,1.16675 1.0105,0.58345 m 0.078,79.98519 -0.7396,3.61486 -1.8024,3.89956 -3.1496,3.12158 -4.0178,3.06967 m -381.15106,41.76864 1.01041,0.58337 m 42.08291,7.23071 2.70852,-1.57995 m 0.0383,2.2675 1.98286,-1.10068 m -4.497,2.34379 2.51414,-1.24311 m 0,0 -1.98281,1.10076 m 3.96567,-2.20144 -1.98286,1.10068 m 65.54252,25.71535 -4.30246,2.00699 -4.0558,0.80196 -3.80943,-0.40287 -3.22589,-1.41334 -2.448,-2.7607 -1.72224,-3.23986 -0.94464,-4.58711 0.1182,-4.87194 0.84395,-5.35104 1.56967,-5.83026 2.58017,-5.24685 3.44831,-5.19477 3.59073,-4.66343 4.0698,-3.93773 4.35462,-2.87514 m 0.6213,1.25708 -0.6213,-1.25708 m 0.65861,47.08686 -4.30237,2.00699 -4.39275,0.60766 -3.61484,-0.73983 -3.03146,-1.75022 -2.44804,-2.76055 -1.67009,-4.10808 -0.41321,-4.72953 0.5071,-5.54549 1.37523,-5.49342 2.43787,-5.77813 3.11152,-5.38928 3.78503,-5.00032 4.26431,-4.27452 4.35453,-2.87509 m 0.037,45.82981 -0.72575,0.47923 m -36.33435,-73.97175 -1.45161,0.95841 m 17.9561,8.57048 -1.98283,1.10075 m 12.56681,5.45899 -2.85095,1.0487 -6.77848,5.51763 -6.01438,7.306 -4.71933,8.95198 -3.03518,9.92426 -0.52105,8.68123 1.13885,4.25027 m 44.11874,-38.30049 -0.28469,-1.06248 -1.77439,-2.37185 -2.02096,-1.16683 -1.87864,-0.63553 -1.54177,-0.44099 M 781,504.90381 l -6.1951,4.50705 -5.62555,6.63236 -4.61513,7.21577 -3.9935,8.4728 -2.2573,8.57696 -0.46899,7.8131 0.98261,6.85471 2.62849,5.5594 4.13211,3.73309 5.29902,1.71198 6.12897,-0.5033 0.72575,-0.47923 m 22.40926,-59.81644 -2.44799,-2.76071 -4.96222,-1.51757 -5.4552,0.89231 -6.28526,3.10772 m -5.72608,-3.30596 -5.85821,4.70157 -5.96241,6.43786 -4.6151,7.21575 -3.65677,8.66723 -2.25725,8.57691 -0.80589,7.61863 1.31946,7.04919 2.6285,5.5594 4.13214,3.73309 2.7468,0.68766 m 31.33712,-60.5003 -1.96889,-2.035 -4.96211,-1.51751 -5.45527,0.89229 -6.62212,2.91323 m -5.38928,-3.11147 -5.85809,4.70159 -5.96238,6.43788 -4.61517,7.21573 -3.65675,8.66719 -2.25727,8.57699 -0.80584,7.6186 0.98253,6.85469 2.96545,5.75392 4.13217,3.73315 3.08356,0.88201 m 31.00029,-60.69477 -2.30574,-2.22947 -4.62532,-1.323 -5.79215,0.69771 -6.28526,3.10775 m -5.38918,-3.11145 -6.19499,4.50712 -5.62555,6.63235 -4.61513,7.21572 -3.99353,8.47282 -2.25734,8.57686 -0.46895,7.81316 0.9825,6.85466 2.9655,5.75397 4.1321,3.73306 2.74665,0.68755 m 31.00026,-60.6948 -1.96874,-2.0349 -4.6254,-1.3231 -5.79215,0.69779 -6.28523,3.10774 m -5.3892,-3.11146 -6.19504,4.5071 -5.62554,6.63236 -4.61517,7.21572 -3.99349,8.47281 -2.25727,8.57692 -0.46899,7.8131 0.98256,6.85469 2.62854,5.55946 4.46894,3.92757 2.74678,0.68756 m 31.33698,-60.50036 -2.64243,-2.42386 -4.81985,-0.98626 -5.45525,0.89237 -6.0908,2.77085 m -4.19832,0.27071 -3.09747,2.25353 -2.56612,2.11123 -1.84051,1.63197 -0.92026,0.81607 -1.89251,2.50013 -1.89261,2.50013 -1.89261,2.5002 -1.55568,2.69451 -2.96914,5.92059 -2.10104,5.97262 -1.03842,5.68789 -0.50704,5.5455 0.60762,4.39273 1.61815,4.97613 1.10073,1.98275 1.2952,1.64603 1.1528,1.11474 0.33689,0.19456 m 23.65242,-57.30234 -1.06273,0.28471 -6.4276,2.57644 m 19.12835,70.32513 -1.01057,-0.58345 -2.44806,-2.76063 -1.72218,-3.23984 -0.94434,-4.5872 0.1182,-4.87188 0.84398,-5.35104 1.90644,-5.63585 2.24344,-5.44129 3.44827,-5.19474 3.59065,-4.66345 4.06981,-3.93774 4.35468,-2.87517 m 7.07337,4.08379 -7.07337,-4.08379 m 0,0 -2.96537,-5.75393 m -7.44288,57.22974 v 0 l -2.26759,0.0383 -1.73616,-0.10441 -2.21541,-0.82996 -1.54179,-0.44106 -2.97934,-2.61833 -2.05904,-3.4343 -1.67019,-4.10789 -0.55555,-5.26094 0.45506,-4.67743 1.09055,-6.55596 1.07651,-3.42042 1.21885,-2.88901 1.16683,-2.02101 1.02441,-2.55229 0.3889,-0.67356 1.36131,-2.35787 1.16679,-2.02092 1.69809,-2.16328 1.50368,-1.82648 1.50369,-1.82654 8.81328,-7.48641 m 10.66021,11.09476 4.49697,-2.34375 4.39271,-0.60764 3.61477,0.73976 3.03144,1.7502 2.4481,2.76065 1.67014,4.10803 0.2185,5.06634 -0.31262,5.20866 -1.56969,5.83026 -2.4378,5.77818 -3.11151,5.38924 -3.78516,5.00027 -4.06982,3.93775 -4.54899,3.21188 m -0.0383,-2.26753 -3.77119,1.86461 -3.86132,0.46526 -3.27812,-0.54522 -3.03144,-1.7502 -2.11109,-2.56624 -1.19107,-3.38225 -0.60753,-4.39268 0.64941,-5.01419 1.18074,-5.1567 2.04893,-5.10447 2.91704,-5.05238 3.39609,-4.32662 3.8755,-3.60092 3.8232,-2.7327 m 0,0 4.3024,-2.00698 3.52464,-0.65967 3.27798,0.54513 3.03146,1.7502 2.11122,2.56633 1.52772,3.57666 0.0764,4.53506 -0.1182,4.87186 -1.51768,4.96213 -2.04881,5.10452 -2.91701,5.05242 -3.39624,4.32655 -3.53852,3.79549 -4.35456,2.875 m 3.90432,-53.43445 5.86833,3.83726 0.28471,1.06252 m -25.23782,-9.18176 -0.67365,-0.38895 m 0,0 -6.19498,4.50711 -5.62567,6.6323 -4.95187,7.02134 -3.65679,8.6672 -2.25725,8.57694 -0.46901,7.81311 0.9826,6.85469 2.6285,5.55942 4.13223,3.73313 m 16.44597,-9.81638 -2.70864,1.57999 m 17.52894,6.97653 -14.8203,-8.55652 m -6.08611,-52.46587 -0.67372,-0.38895 m 0,0 -5.85806,4.70162 -5.96245,6.43782 -4.61513,7.21576 -3.65678,8.66721 -2.25727,8.57691 -0.80576,7.61872 1.31933,7.04913 2.62863,5.55948 4.13217,3.73309 m 10.35975,-62.28229 -0.67356,-0.3889 m 0,0 -5.85821,4.70157 -5.96241,6.43784 -4.61516,7.21574 -3.65665,8.66731 -2.25734,8.57686 -0.80577,7.61868 0.98256,6.8547 2.96542,5.75393 4.13209,3.73306 m 45.1293,-37.7171 -0.0147,3.1357 -0.1182,4.87183 -1.51762,4.96222 -2.04885,5.10446 -2.917,5.05239 -3.39621,4.32661 -3.53855,3.79541 -4.3545,2.87506 m -0.0383,-2.2676 -3.04545,1.38553 m 18.86334,-32.67221 0.0902,1.3995 0.0761,4.53509 -0.9863,4.8197 -1.51763,4.9622 -2.72252,4.71554 -3.05936,4.52108 -3.87544,3.60081 -3.82322,2.73273 m 14.23797,-33.9952 4.3024,-2.00704 4.05594,-0.80201 4.00373,0.0659 3.03141,1.75017 2.64252,2.42389 1.52784,3.57677 1.13885,4.25021 -0.15635,2.60445 m -51.61077,-34.28851 -0.67359,-0.3889 m 0,0 -6.19507,4.50707 -5.62558,6.63233 -4.61512,7.21575 -3.99352,8.47278 -2.25726,8.57695 -0.46894,7.81313 0.98259,6.85472 2.96537,5.75387 4.13205,3.73309 m 39.74013,-40.82855 4.30246,-2.00698 4.05591,-0.80199 4.0037,0.0659 2.35788,1.36131 m 4.67743,0.455 0.90635,2.31968 -0.19457,0.33688 m -23.07453,-7.48365 4.69136,-2.68075 1.59391,-0.42696 0.868,0.0519 6.46586,-0.30886 5.58364,2.77459 2.73273,3.82326 0.2847,1.06267 0.14235,0.53128 m -48.77755,-20.52692 -0.67368,-0.38895 m 0,0 -6.19492,4.50711 -5.6257,6.63233 -4.61508,7.21573 -3.99364,8.4727 -2.25711,8.57685 -0.46901,7.81314 0.98261,6.85469 2.62853,5.55942 4.13219,3.73313 m 54.00861,-49.20737 v 0 l -4.96208,-1.51754 -5.45532,0.89225 -6.28527,3.10776 m -47.4833,24.68134 0.15635,-2.60441 0.84389,-5.35103 1.90655,-5.63577 2.24333,-5.44137 3.44833,-5.19474 3.59068,-4.66345 4.06981,-3.93769 4.3546,-2.87514 m 0,0 1.45146,-0.95841 m 36.73179,6.3867 v 0 l -4.96215,-1.5175 -5.45529,0.89225 -6.62208,2.91328 m 11.65038,-5.39947 -0.33688,-0.19455 -4.62543,-1.3231 -5.79203,0.69784 -6.28527,3.10774 m 11.31347,-5.59397 v 0 l -4.6254,-1.32308 -5.79206,0.69785 -6.28523,3.10772 m 11.11894,-5.25717 -4.4308,-1.65983 -5.79215,0.69778 -6.28526,3.10775 m 22.9451,47.37914 v 0 m 5.25066,-9.09441 -0.19456,0.33692 -0.15635,2.60432 -1.36121,2.35773 -1.36129,2.35781 -2.17728,1.43766 m 0,0 v 0 m 4.66721,-8.08384 0.67359,0.38887 m -5.3408,7.69497 0.92024,-0.8161 0.72572,-0.47924 0.9203,-0.81605 0.77788,-1.34728 0.58335,-1.01043 0.58345,-1.01052 0.24649,-1.20496 0.58334,-1.01042 m 0,0 -0.86808,-0.0522 m 47.00778,-37.08153 -10.77835,-6.22291 m 10.7617,-22.52916 -10.77844,-6.22299 m 10.77844,6.22299 -0.0799,7.13941 m -4.04198,-2.33365 4.04198,2.33365 m -4.04198,-2.33365 0.0233,5.40316 m 0,0 4.04188,2.33357 m 0,0 0.0727,16.20958 m 10.01185,-27.45314 -10.10856,5.84048 m 10.1886,-12.97992 -10.10854,5.84051 m 10.10854,-5.84051 -0.0799,7.13944 m -3.96194,-9.47319 4.04195,2.33363 m 4.02147,-14.74404 -24.90848,14.36159 m 35.68686,-8.1387 -10.77835,-6.22289 m 10.77835,6.22289 -10.10849,5.84042 m -4.04186,-2.33353 4.04186,2.33353 m -4.04186,-2.33353 -4.69145,2.68063 m 4.61144,4.45875 0.0799,-7.13941 m 10.05258,6.70212 0.0522,-0.86816 m -10.16073,6.70861 10.10857,-5.84051 m -10.03603,22.05009 -0.0727,-16.20958 m 0.0727,16.20958 -0.72572,0.47924 m -14.14661,-8.16758 10.10855,-5.84051 m -5.99417,24.38362 10.10854,-5.84051 m -10.18106,-10.36906 10.10852,-5.84048 m 0,0 0.0727,16.20954 m -0.0727,-16.20954 -4.04183,-2.33357 m 147.61665,-64.32426 -0.13655,19.68194 m -3.7712,1.86466 3.7712,-1.86466 m -3.72568,-19.21676 -0.0455,21.08142 m -25.10296,14.6984 -0.0586,-19.34518 m -1.92415,20.44594 1.98275,-1.10076 m -1.93724,-19.98068 -0.0455,21.08144 m -25.63428,14.84077 0.13598,-19.682 m -1.92407,20.44595 1.78829,-0.76395 m -1.93725,-19.98065 0.14907,20.74458 m -25.29747,15.03522 0.13598,-19.68195 m -2.11867,20.78274 1.98276,-1.10079 m -1.9372,-19.98062 -0.0455,21.08141 m -25.4397,14.50397 0.13598,-19.68197 m -2.11872,20.78268 1.98286,-1.10071 m -1.93725,-19.98065 -0.0455,21.08136 m -25.10284,14.69847 -0.0586,-19.34515 m -1.92426,20.44585 1.98286,-1.1007 m -1.9372,-19.98062 -0.0455,21.08132 m -24.49808,-12.79663 4.69141,-2.68063 m 21.10285,-26.43903 -4.04178,-2.33358 m 4.04178,2.33358 0.0799,-7.13945 m 10.02847,1.29895 0.0799,-7.13934 m -0.0799,7.13934 -10.10855,5.8405 m -7.06947,-15.75828 -2.35786,-1.36129 m 9.45154,22.52285 10.10859,-5.84053 m -10.03603,22.0501 -0.0727,-16.20957 m 10.18114,10.36906 -0.0727,-16.20959 m -10.03603,22.0501 10.10859,-5.84051 m -14.22311,-12.70272 4.04198,2.33366 m 6.06661,-8.17414 4.04196,2.33361 m -10.03603,22.0501 -4.04196,-2.33365 m 26.67644,-32.20317 -10.10855,5.84049 m -0.2567,-7.33386 0.2567,7.33386 m 9.85179,-13.1744 -10.10857,5.84054 m 10.10857,-5.84054 0.2567,7.33391 m -10.34864,27.2587 -2.35777,-1.36125 m -8.43736,-33.6138 -0.15635,2.60432 m 10.93485,3.61866 -10.77844,-6.22298 m 8.67738,12.19554 2.35784,1.3613 m -3.9656,2.20147 -0.0522,0.86807 m 0,0 3.70507,2.13907 m 0,0 0.0727,16.20962 m 6.3868,-36.73173 3.70508,2.13913 m 4.02144,-14.74406 -24.90845,14.36162 m 35.68683,-8.13873 -10.77838,-6.22289 m 10.77838,6.22289 -10.10849,5.84045 m -3.70505,-2.13915 3.70505,2.13915 m -3.70505,-2.13915 -4.69133,2.68074 m 4.61133,4.45874 0.0799,-7.13948 m 10.05262,6.70215 0.0522,-0.86816 m -10.1607,6.70867 10.10858,-5.84051 m -10.036,22.05006 -0.0727,-16.20955 m 0.0727,16.20955 -0.72572,0.47923 m -14.14668,-8.16754 10.10859,-5.84051 m -23.26898,-7.14684 -1.10071,-1.98289 m 3.96561,-2.20145 1.10073,1.98289 m 12.97237,33.53746 10.10852,-5.84051 m -10.18103,-10.36908 10.44534,-5.64599 m 0,0 -0.26428,16.01507 m 0.26428,-16.01507 -4.04185,-2.33359 m 18.81757,-11.59074 -0.25699,-7.33387 m 0.25699,7.33387 -10.10852,5.84048 m 0,0 -0.2567,-7.33389 m 0.2567,7.33389 -4.04186,-2.33356 m -3.02775,-13.42472 -2.35774,-1.36125 m -16.4599,12.95201 -3.03141,-1.75019 m 28.60602,11.12652 10.44539,-5.64604 m -10.37285,21.85558 -0.0727,-16.20954 m 10.18108,10.36909 0.26428,-16.01513 m -10.37285,21.85558 10.10854,-5.84045 m -13.88624,-12.50824 3.70516,2.13915 m 0.0727,16.20954 -3.70511,-2.13916 m 10.03596,-22.05004 4.04198,2.33362 m 2.24977,14.77197 -2.35779,-1.36129 m -8.77413,-33.80827 0.18056,2.7988 m 10.93479,3.61863 -11.11526,-6.41743 m 11.11526,6.41743 -0.0799,7.13944 m -2.35782,-1.36127 2.35782,1.36127 m -3.96563,2.20147 -0.0522,0.8681 m 0,0 4.04187,2.33354 m 0,0 0.0727,16.20958 m 10.01182,-27.45313 -10.10851,5.84047 m 10.18852,-12.97998 -10.10854,5.84054 m 10.10854,-5.84054 -0.0799,7.13951 m -3.96183,-9.47309 4.04184,2.33358 m 4.02144,-14.74404 -25.24521,14.16718 m 36.0237,-7.94424 -10.77849,-6.22294 m 10.77849,6.22294 -10.10851,5.84043 m -4.04194,-2.3336 4.04194,2.3336 m -4.04194,-2.3336 -4.69132,2.68069 m 4.80584,4.12196 -0.11464,-6.80265 m 10.24717,6.36528 0.0522,-0.86808 m -10.35513,7.04544 10.30306,-6.17739 m -10.23045,22.38694 -0.0727,-16.20955 m 0.0727,16.20955 -0.72575,0.47926 m -14.14661,-8.16755 10.10855,-5.84051 m -45.35927,67.67421 0.0522,-0.86816 0.19457,-0.33688 m 24.85632,-13.49342 -25.10292,14.6984 m 25.34951,-15.90346 -0.0522,0.86824 -0.19457,0.33691 m 2.17725,-1.43759 0.19457,-0.33688 -0.14235,-0.53133 m 24.85635,-13.49338 -24.90847,14.36159 m 25.4919,-15.37216 -0.0522,0.86822 -0.53132,0.14235 m 2.51406,-1.2431 -0.14235,-0.53133 0.19457,-0.33688 m 24.85639,-13.49339 -24.90852,14.3616 m 25.34956,-15.90344 -0.0522,0.86816 -0.38896,0.67368 m 2.17725,-1.43759 0.19457,-0.33688 -0.14236,-0.53136 m 24.85635,-13.49338 -24.90848,14.36153 m 25.68642,-15.70889 -0.0522,0.86813 -0.72577,0.47923 m 2.51408,-1.24312 -0.14235,-0.53135 0.38898,-0.67371 m 24.66182,-13.15653 -24.90842,14.36159 m 25.3495,-15.90342 -0.0526,0.86816 -0.38902,0.67367 m 4.21228,-3.40647 -0.19459,0.33692 0.14239,0.53133 -0.19459,0.33688 -0.53126,0.14236 m -139.87351,80.47157 -23.84581,14.07684 m 24.42927,-15.08736 -0.0522,0.86818 -0.53136,0.14234 m -23.54335,0.32937 11.75444,-7.13565 m 11.78891,6.80628 -11.78891,-6.80628 m 0,0 0.22257,-6.60809 m 36.17079,-62.6497 -1.10067,-1.98289 m 3.96563,-2.20147 1.24296,2.51414 m 12.97253,33.53743 10.10854,-5.84051 m -10.18109,-10.3691 10.10855,-5.84043 m 0,0 0.0727,16.20953 m -0.0727,-16.20953 -4.04186,-2.33358 m 88.90259,-9.3008 0.38902,-0.67359 m -80.38811,3.88728 -4.04186,-2.33357 m 4.04186,2.33357 -0.11436,-6.80259 m 10.2229,0.96214 -0.11436,-6.80256 m 0.11436,6.80256 -10.10846,5.84045 m -7.26412,-15.42149 -2.35773,-1.36122 m -16.123,13.14643 -3.36826,-1.94464 m -51.04715,66.63577 11.78892,6.80636 m 64.15907,-64.45476 4.042,2.33365 m 0.0727,16.20955 -0.0727,-16.20955 m 0.0727,16.20955 -4.04193,-2.33364 m 3.96939,-13.87591 10.30303,-6.17739 m -4.04198,-2.33364 4.04198,2.33364 m -0.1219,16.54643 0.1219,-16.54643 m -10.23049,22.38694 10.10854,-5.84051 m 12.72029,-29.03318 -10.10854,5.84051 m -0.45123,-6.99707 0.45123,6.99707 m 9.85179,-13.17443 -10.30302,6.17736 m 10.30302,-6.17736 0.2567,7.33392 m -10.54303,27.5956 -2.35782,-1.36128 m -8.4373,-33.61378 -0.15637,2.60433 m 10.9348,3.61857 -10.77838,-6.2229 m 8.87192,11.85876 2.35769,1.36121 m -3.96555,2.20149 -0.0522,0.86807 m 0,0 3.70512,2.13915 m 0,0 -0.1219,16.54641 m 6.58128,-37.06862 3.705,2.1391 m 4.02146,-14.74399 -25.10286,14.69844 m 35.8813,-8.47552 -10.77844,-6.22292 m 10.77844,6.22292 -10.10852,5.84051 m -3.70514,-2.13915 3.70514,2.13915 m -3.70514,-2.13915 -4.69124,2.68061 m 4.61125,4.45875 0.0799,-7.13936 m 10.05276,6.70205 0.0522,-0.8681 m -10.16058,6.70861 10.10852,-5.84054 m -10.23042,22.38697 0.1219,-16.54643 m -0.1219,16.54643 -0.72582,0.47896 m -13.95225,-8.50445 10.1085,-5.84043 m -72.6737,69.86817 13.01156,-7.75724 m 11.78892,6.80638 -11.78892,-6.80638 m 0,0 -0.11436,-6.80253 m 36.50765,-62.45523 -1.10074,-1.98292 m 3.96558,-2.20148 0.90634,2.31968 m 12.97246,33.53753 10.10858,-5.8405 m -9.98665,-10.70593 10.44534,-5.64595 m 0,0 -0.45872,16.35185 m 0.45872,-16.35185 -4.04193,-2.33362 m 18.81765,-11.59068 -0.25668,-7.3339 m 0.25668,7.3339 -10.10852,5.84039 m 0,0 -0.25668,-7.33381 m 0.25668,7.33381 -4.04193,-2.33361 m -3.02771,-13.42462 -2.35772,-1.36121 m -16.6543,13.28875 -3.0315,-1.75026 m -45.32093,69.94179 6.06282,3.50037 m 64.35355,-64.79157 3.70514,2.13915 m -0.1219,16.54641 0.1219,-16.54641 m -0.1219,16.54641 -3.70505,-2.13913 m 3.82701,-14.40728 10.44538,-5.64602 m -4.04198,-2.33369 4.04198,2.33369 m -0.45882,16.35192 0.45882,-16.35192 m -10.56734,22.19243 10.10852,-5.84051 m 12.72034,-29.03318 -10.10854,5.84051 m 0.0799,-7.13945 -0.0799,7.13945 m 10.18861,-12.97995 -10.10855,5.8405 m 10.10855,-5.8405 -0.0802,7.13944 m -3.96181,-9.47302 4.04187,2.33358 m -10.10854,5.8405 -11.11523,-6.41736 m 25.24518,-14.16715 -25.24518,14.16715 m 36.0237,-7.94421 -10.77852,-6.22294 m 10.77852,6.22294 -10.10854,5.84051 m -4.04198,-2.33365 4.04198,2.33365 m -4.04198,-2.33365 -4.69128,2.6806 m -6.2444,37.26313 -2.35785,-1.36132 m -8.57965,-34.14506 0.18056,2.79883 m 8.49695,9.39676 2.35774,1.36122 m -3.96558,2.2015 -0.0522,0.86807 m 0,0 4.04191,2.33362 m 0,0 -0.12189,16.54643 m 10.85567,-32.80434 0.0799,-7.13935 m 10.05271,6.70201 0.0519,-0.86802 m -10.16059,6.70858 10.10855,-5.84051 m -10.03601,22.05012 -0.0727,-16.20961 m 0.0727,16.20961 -0.7258,0.47896 m -14.1467,-8.16766 10.10846,-5.84039 m -72.67365,69.86821 13.01154,-7.75725 m 11.78892,6.80633 -11.78892,-6.80633 m 0,0 0.22228,-6.60812 m 36.17085,-62.64969 -1.10071,-1.98289 m 3.96558,-2.2015 1.4375,2.17732 m 12.77804,33.87441 10.30302,-6.17737 m -10.18112,-10.36909 10.10849,-5.84039 m 0,0 0.0727,16.20948 m -0.0727,-16.20948 -4.04195,-2.33364 m 18.8177,-11.5907 0.0799,-7.13939 m -0.0799,7.13939 -10.10852,5.84043 m 0,0 0.0799,-7.13934 m -0.0799,7.13934 -4.04194,-2.33358 m -3.02773,-13.42465 -2.35773,-1.36123 m -16.12309,13.14638 -3.36825,-1.94463 m -172.0776,97.35748 0.92026,-0.81591 m 125.97873,-26.06856 5.72607,3.30596 m 68.39552,-62.45798 10.10852,-5.84054 m -14.1505,3.50681 4.04195,2.3336 m 6.06661,-8.17411 4.04191,2.3336 m -10.03606,22.05006 -0.0724,-16.20955 m 10.18099,10.36904 -0.0724,-16.20955 m -10.03606,22.05006 10.10851,-5.84051 m -10.10851,5.84051 -4.04187,-2.33358 m 26.67632,-32.20326 -10.10853,5.84054 m -0.25675,-7.33392 0.25675,7.33392 m 9.85179,-13.17443 -10.10854,5.84051 m 10.10854,-5.84051 0.25674,7.33389 m -10.34863,27.25877 -2.35784,-1.3613 m -8.43731,-33.61376 -0.15635,2.60439 m 10.93471,3.61852 -10.77836,-6.22291 m 8.67744,12.19561 2.35781,1.36122 m -3.96575,2.20144 -0.0522,0.86809 m 0,0 3.70517,2.13915 m 0,0 0.0725,16.20958 m 6.3867,-36.73179 3.70505,2.13913 m 4.02154,-14.74399 -24.90842,14.3616 m 35.6869,-8.13864 -10.77848,-6.22296 m 10.77848,6.22296 -10.10853,5.84048 m -3.7052,-2.13912 3.7052,2.13912 m -3.7052,-2.13912 -4.69134,2.68054 m 4.6114,4.45875 0.0797,-7.13929 m 10.05277,6.70206 0.0526,-0.86813 m -10.16059,6.70861 10.10853,-5.8405 m -10.03599,22.05008 -0.0725,-16.20958 m 0.0725,16.20958 -0.72585,0.47894 m -14.14668,-8.16763 10.1085,-5.8404 m -72.67369,69.86818 13.01161,-7.75724 m 11.78889,6.80636 -11.78889,-6.80636 m 0,0 -0.11436,-6.8026 m 36.50762,-62.45519 -1.10068,-1.98289 m 3.96561,-2.20149 1.10073,1.98289 m 12.97251,33.53753 10.10853,-5.84051 m -10.18107,-10.3691 10.44535,-5.64588 m 0,0 -0.26428,16.01498 m 0.26428,-16.01498 -4.04202,-2.3337 m 18.81772,-11.59066 -0.25675,-7.33387 m 0.25675,7.33387 -10.10854,5.8404 m 0,0 -0.2566,-7.33376 m 0.2566,7.33376 -4.04187,-2.33362 m -3.02771,-13.4246 -2.3579,-1.36128 m -16.45986,12.95199 -3.03146,-1.7502 m -45.5154,70.27851 6.06293,3.50043 m 68.05863,-62.65244 10.44536,-5.64607 m -10.37282,21.8556 -0.0725,-16.20953 m 0.0725,16.20953 10.10854,-5.84053 m 0,0 0.26428,-16.01507 m -14.15055,3.50683 3.70505,2.13912 m 6.40348,-7.97963 4.04187,2.33354 m -10.37281,21.85563 -3.70505,-2.1391 m -50.15746,40.20323 12.8171,-7.42042 m 11.78892,6.80639 -11.78892,-6.80639 m 0,0 0.22227,-6.60812 m 36.17092,-62.64972 -1.1008,-1.98289 m 4.69135,-2.68052 2.05905,3.4343 m -47.76895,67.18101 5.7261,3.30594 m 14.60542,-8.18437 12.81721,-7.42029 m 11.78881,6.80631 -11.78881,-6.80631 m 0,0 0.0797,-7.13948 m -6.14301,3.63901 6.06293,3.50047 M 680.0651,528.8158 l 2.35782,1.36127 m 5.0319,-14.16068 2.35782,1.36129 M 194.30437,284.28698 659.79828,553.04003 M 192.80074,286.1135 659.64205,555.64441 M 233.99966,220.97764 696.46228,487.98056 M 193.33202,285.97111 659.8365,555.30762 M 235.7118,215.67869 701.87939,484.8207 M 235.5554,218.28297 699.36535,486.06374 M 194.15826,295.43019 659.6522,564.18323 M 192.99145,297.45115 659.83273,566.9821 M 193.18592,297.1143 659.69038,566.4508 M 191.86269,301.73964 659.04089,571.46509 M 249.5254,211.97735 711.9879,478.98022 M 194.349,306.76785 657.48519,574.15968 M 251.23742,206.67835 717.40504,475.82038 M 192.84532,308.5943 656.31837,576.1806 M 192.06747,309.94161 655.54052,577.52791 M 251.08118,209.28268 715.22785,477.25787 M 193.57109,308.11521 656.70729,575.50704 M 192.24794,312.74041 654.37374,579.54886 M 194.20285,317.911 652.62354,582.5803 M 192.69922,319.73748 651.45671,584.60125 M 191.92133,321.08482 650.67883,585.94858 M 193.42494,319.25836 651.84563,583.92766 M 192.10183,323.88362 649.51207,587.96955 M 265.38791,203.17151 727.5136,469.97987 M 266.76312,197.67806 732.93079,466.82008 M 266.94368,200.47684 730.75344,468.25752 M 194.58799,328.91191 647.95628,590.66422 M 193.08439,330.73831 646.7895,592.68512 M 192.11206,332.42247 645.81716,594.36924 M 193.61566,330.59606 646.98396,592.34835 M 191.95577,335.02686 644.65038,596.3902 M 194.4419,340.05509 643.09464,599.08487 M 280.91353,194.17115 743.0393,460.9796 M 192.93827,341.88152 641.92783,601.10576 M 191.96595,343.56565 640.95551,602.78986 M 193.46955,341.73922 642.12227,600.769 M 282.28877,188.6777 748.45638,457.81971 M 192.14654,346.36451 639.78873,604.81086 M 282.46928,191.47648 746.27922,459.25726 M 194.29576,351.1983 638.23295,607.50556 M 193.12899,353.21917 637.06616,609.52642 M 192.15667,354.9033 636.09385,611.21055 M 193.32344,352.8824 637.26063,609.18966 M 192.0004,357.50772 634.92703,613.23153 M 296.43927,185.17089 758.5649,451.97925 M 297.81444,179.67739 764.31888,449.01386 M 194.48648,362.53593 633.37127,615.92617 M 297.99505,182.47619 761.80484,450.25688 M 192.98299,364.36241 632.2045,617.94707 M 194.36836,367.40777 631.23218,619.6312 M 193.51416,364.2201 632.39892,617.61033 M 207.6292,390.33347 624.62026,631.08338 M 312.15937,175.83368 774.62188,442.83653 M 313.87145,170.53475 780.03907,439.67676 M 313.71509,173.13911 777.525,440.91985 m -89.92098,194.64099 2.35775,1.36122 M 327.68502,166.83334 790.14765,433.83623 M 329.3971,161.53442 795.56469,430.67642 M 329.24075,164.13875 793.05063,431.91952 M 343.21079,157.83308 805.67325,424.83588 M 344.92275,152.5341 811.09044,421.67613 M 344.76652,155.13849 808.57625,422.91918 m -119.27413,210.47824 2.02097,1.16679 m 0.73974,-3.61475 0.33692,0.19457 M 358.7364,148.83272 821.19899,415.83563 M 360.44849,143.53379 826.61609,412.6758 M 360.29211,146.13813 824.43885,414.11336 M 390.12463,131.02659 852.25029,397.83492 M 391.49986,125.53317 857.66747,394.67516 M 391.68036,128.332 855.49012,396.11269 M 405.65027,122.0262 867.77601,388.83468 M 407.02548,116.53283 873.52997,385.86928 M 407.20596,119.33163 871.0159,387.1124 M 421.17598,113.02594 883.63848,380.02878 M 422.88797,107.72698 889.05556,376.86894 M 422.73171,110.33133 886.54146,378.11209 M 436.70163,104.0256 899.16413,371.02843 M 438.41371,98.726708 904.58134,367.86868 M 438.25736,101.33104 902.0672,369.11178 M 452.22728,95.025267 914.68986,362.02817 M 453.93933,89.726364 920.10693,358.86835 M 453.78298,92.330697 917.59285,360.11147 M 467.753,86.025009 930.21548,353.02782 M 469.46501,80.726049 935.63267,349.86807 M 469.30871,83.330396 933.45534,351.30557 M 483.61547,77.219106 945.74124,344.02753 M 485.1852,71.388896 951.3528,340.53086 M 485.1712,74.52455 948.98107,342.30531 M 499.3356,67.881925 961.46135,334.69032 M 500.71082,62.388509 966.87845,331.53051 M 500.89133,65.187384 964.70121,332.96813 M 514.86137,58.881667 976.98705,325.69 M 516.23657,53.388251 982.74107,322.72472 M 516.41707,56.187111 980.22684,323.96781 m 14.21925,24.3772 1.3473,0.77782 m -2.22932,2.30563 0.33682,0.19456 m -702.78156,139.90751 -0.17676,-14.47332 m 287.77433,181.416 0.16015,-14.27872 m 202.44778,-92.39818 -0.67356,-0.38893 m -27.1917,-57.91461 -4.3788,-2.52811 m 32.49066,59.62681 -3.04534,1.38537 m 3.04534,-1.38537 v 0 l -0.19455,0.33691 -0.19457,0.33689 m 15.03997,-29.93932 0.1283,3.66691 -0.45505,4.67743 -1.51757,4.96208 -2.38564,4.91002 -3.05947,4.52118 -3.53849,3.79531 -3.82328,2.73281 m -0.19077,-11.33768 v 0 m 0.19455,-0.33688 -0.19455,0.33688"
       style="fill:none;stroke:#000000;stroke-width:2.75622;stroke-linecap:round;stroke-linejoin:round;stroke-miterlimit:10;stroke-dasharray:none;stroke-opacity:1" />
  </g>
</svg>
