{
  "asset": {
    "generator": "Khronos glTF Blender I/O v5.1.19",
    "version": "2.0"
  },
  "scene": 0,
  "scenes": [
    {
      "name": "Scene",
      "nodes": [
        0
      ]
    }
  ],
  "nodes": [
    {
      "mesh": 0,
      "name": "IM2620C-EC.SLDPRT"
    }
  ],
  "materials": [
    {
      "name": "Material_0.001",
      "pbrMetallicRoughness": {
        "baseColorFactor": [
          0.13843165338039398,
          0.21952621638774872,
          0.30946898460388184,
          1
        ],
        "metallicFactor": 0
      }
    },
    {
      "name": "color.001",
      "pbrMetallicRoughness": {
        "baseColorFactor": [
          0.8823530077934265,
          0.8823530077934265,
          0.8823530077934265,
          1
        ],
        "metallicFactor": 0,
        "roughnessFactor": 0.1599999964237213
      }
    },
    {
      "name": "color-1.001",
      "pbrMetallicRoughness": {
        "baseColorFactor": [
          0.2549020051956177,
          0.2549020051956177,
          0.2549020051956177,
          1
        ],
        "metallicFactor": 0,
        "roughnessFactor": 0.1599999964237213
      }
    },
    {
      "name": "color-2.001",
      "pbrMetallicRoughness": {
        "baseColorFactor": [
          0.8039219975471497,
          0.5843139886856079,
          0.19215700030326843,
          1
        ],
        "metallicFactor": 0,
        "roughnessFactor": 0.1599999964237213
      }
    },
    {
      "name": "color-3.001",
      "pbrMetallicRoughness": {
        "baseColorFactor": [
          0.6666669845581055,
          0.6666669845581055,
          0.6666669845581055,
          1
        ],
        "metallicFactor": 0,
        "roughnessFactor": 0.1599999964237213
      }
    },
    {
      "name": "color-5.001",
      "pbrMetallicRoughness": {
        "baseColorFactor": [
          0.2980389893054962,
          0.2980389893054962,
          0.2980389893054962,
          1
        ],
        "metallicFactor": 0,
        "roughnessFactor": 0.1599999964237213
      }
    },
    {
      "name": "color-6.001",
      "pbrMetallicRoughness": {
        "baseColorFactor": [
          0.8117650151252747,
          0.8117650151252747,
          0.8117650151252747,
          1
        ],
        "metallicFactor": 0,
        "roughnessFactor": 0.1599999964237213
      }
    },
    {
      "name": "color-4.001",
      "pbrMetallicRoughness": {
        "baseColorFactor": [
          0.2509799897670746,
          0.2509799897670746,
          0.2509799897670746,
          1
        ],
        "metallicFactor": 0,
        "roughnessFactor": 0.1599999964237213
      }
    },
    {
      "name": "color-8.001",
      "pbrMetallicRoughness": {
        "baseColorFactor": [
          0.450980007648468,
          1,
          0.6196079850196838,
          1
        ],
        "metallicFactor": 0,
        "roughnessFactor": 0.1599999964237213
      }
    },
    {
      "name": "color-7.001",
      "pbrMetallicRoughness": {
        "baseColorFactor": [
          1,
          1,
          0.5294119715690613,
          1
        ],
        "metallicFactor": 0,
        "roughnessFactor": 0.1599999964237213
      }
    },
    {
      "name": "color-9.001",
      "pbrMetallicRoughness": {
        "baseColorFactor": [
          0.8274509906768799,
          0.6666669845581055,
          0.1294119954109192,
          1
        ],
        "metallicFactor": 0,
        "roughnessFactor": 0.1599999964237213
      }
    },
    {
      "name": "color-10.001",
      "pbrMetallicRoughness": {
        "baseColorFactor": [
          0.7529410123825073,
          0.7529410123825073,
          0.7529410123825073,
          1
        ],
        "metallicFactor": 0,
        "roughnessFactor": 0.1599999964237213
      }
    }
  ],
  "meshes": [
    {
      "name": "Mesh_0.001",
      "primitives": [
        {
          "attributes": {
            "POSITION": 0,
            "NORMAL": 1,
            "TEXCOORD_0": 2
          },
          "indices": 3,
          "material": 0
        },
        {
          "attributes": {
            "POSITION": 4,
            "NORMAL": 5,
            "TEXCOORD_0": 6
          },
          "indices": 7,
          "material": 1
        },
        {
          "attributes": {
            "POSITION": 8,
            "NORMAL": 9,
            "TEXCOORD_0": 10
          },
          "indices": 11,
          "material": 2
        },
        {
          "attributes": {
            "POSITION": 12,
            "NORMAL": 13,
            "TEXCOORD_0": 14
          },
          "indices": 15,
          "material": 3
        },
        {
          "attributes": {
            "POSITION": 16,
            "NORMAL": 17,
            "TEXCOORD_0": 18
          },
          "indices": 19,
          "material": 4
        },
        {
          "attributes": {
            "POSITION": 20,
            "NORMAL": 21,
            "TEXCOORD_0": 22
          },
          "indices": 23,
          "material": 5
        },
        {
          "attributes": {
            "POSITION": 24,
            "NORMAL": 25,
            "TEXCOORD_0": 26
          },
          "indices": 27,
          "material": 6
        },
        {
          "attributes": {
            "POSITION": 28,
            "NORMAL": 29,
            "TEXCOORD_0": 30
          },
          "indices": 31,
          "material": 7
        },
        {
          "attributes": {
            "POSITION": 32,
            "NORMAL": 33,
            "TEXCOORD_0": 34
          },
          "indices": 35,
          "material": 8
        },
        {
          "attributes": {
            "POSITION": 36,
            "NORMAL": 37,
            "TEXCOORD_0": 38
          },
          "indices": 39,
          "material": 9
        },
        {
          "attributes": {
            "POSITION": 40,
            "NORMAL": 41,
            "TEXCOORD_0": 42
          },
          "indices": 43,
          "material": 10
        },
        {
          "attributes": {
            "POSITION": 44,
            "NORMAL": 45,
            "TEXCOORD_0": 46
          },
          "indices": 47,
          "material": 11
        }
      ]
    }
  ],
  "accessors": [
    {
      "bufferView": 0,
      "componentType": 5126,
      "count": 12606,
      "max": [
        0.10305004566907883,
        0.06166774407029152,
        0.018466323614120483
      ],
      "min": [
        -0.0050499578937888145,
        -0.010299953632056713,
        -0.007583778817206621
      ],
      "type": "VEC3"
    },
    {
      "bufferView": 1,
      "componentType": 5126,
      "count": 12606,
      "type": "VEC3"
    },
    {
      "bufferView": 2,
      "componentType": 5126,
      "count": 12606,
      "type": "VEC2"
    },
    {
      "bufferView": 3,
      "componentType": 5123,
      "count": 29556,
      "type": "SCALAR"
    },
    {
      "bufferView": 4,
      "componentType": 5126,
      "count": 5470,
      "max": [
        0.09220218658447266,
        0.06181524693965912,
        0.015947522595524788
      ],
      "min": [
        0.04253009334206581,
        0.04339931160211563,
        -0.0017498476663604379
      ],
      "type": "VEC3"
    },
    {
      "bufferView": 5,
      "componentType": 5126,
      "count": 5470,
      "type": "VEC3"
    },
    {
      "bufferView": 6,
      "componentType": 5126,
      "count": 5470,
      "type": "VEC2"
    },
    {
      "bufferView": 7,
      "componentType": 5123,
      "count": 13590,
      "type": "SCALAR"
    },
    {
      "bufferView": 8,
      "componentType": 5126,
      "count": 3180,
      "max": [
        0.09200014919042587,
        0.06151528283953667,
        0.01454960647970438
      ],
      "min": [
        0.06100015342235565,
        0.04339931160211563,
        -0.0017498476663604379
      ],
      "type": "VEC3"
    },
    {
      "bufferView": 9,
      "componentType": 5126,
      "count": 3180,
      "type": "VEC3"
    },
    {
      "bufferView": 10,
      "componentType": 5126,
      "count": 3180,
      "type": "VEC2"
    },
    {
      "bufferView": 11,
      "componentType": 5123,
      "count": 8736,
      "type": "SCALAR"
    },
    {
      "bufferView": 12,
      "componentType": 5126,
      "count": 1723,
      "max": [
        0.08758515119552612,
        0.05884853005409241,
        0.012250160798430443
      ],
      "min": [
        0.0654151514172554,
        0.049515288323163986,
        0.008876552805304527
      ],
      "type": "VEC3"
    },
    {
      "bufferView": 13,
      "componentType": 5126,
      "count": 1723,
      "type": "VEC3"
    },
    {
      "bufferView": 14,
      "componentType": 5126,
      "count": 1723,
      "type": "VEC2"
    },
    {
      "bufferView": 15,
      "componentType": 5123,
      "count": 4224,
      "type": "SCALAR"
    },
    {
      "bufferView": 16,
      "componentType": 5126,
      "count": 1879,
      "max": [
        0.05147009342908859,
        0.060490332543849945,
        0.004459928721189499
      ],
      "min": [
        0.04253009334206581,
        0.05316011235117912,
        0.00030015234369784594
      ],
      "type": "VEC3"
    },
    {
      "bufferView": 17,
      "componentType": 5126,
      "count": 1879,
      "type": "VEC3"
    },
    {
      "bufferView": 18,
      "componentType": 5126,
      "count": 1879,
      "type": "VEC2"
    },
    {
      "bufferView": 19,
      "componentType": 5123,
      "count": 4872,
      "type": "SCALAR"
    },
    {
      "bufferView": 20,
      "componentType": 5126,
      "count": 1063,
      "max": [
        0.05147009342908859,
        0.06048997864127159,
        0.004160421434789896
      ],
      "min": [
        0.04253009334206581,
        0.05314011126756668,
        0.0005501523264683783
      ],
      "type": "VEC3"
    },
    {
      "bufferView": 21,
      "componentType": 5126,
      "count": 1063,
      "type": "VEC3"
    },
    {
      "bufferView": 22,
      "componentType": 5126,
      "count": 1063,
      "type": "VEC2"
    },
    {
      "bufferView": 23,
      "componentType": 5123,
      "count": 2889,
      "type": "SCALAR"
    },
    {
      "bufferView": 24,
      "componentType": 5126,
      "count": 1633,
      "max": [
        0.09022015333175659,
        0.057013172656297684,
        0.003298605792224407
      ],
      "min": [
        0.003250028006732464,
        0.0005884924903512001,
        -0.007000000216066837
      ],
      "type": "VEC3"
    },
    {
      "bufferView": 25,
      "componentType": 5126,
      "count": 1633,
      "type": "VEC3"
    },
    {
      "bufferView": 26,
      "componentType": 5126,
      "count": 1633,
      "type": "VEC2"
    },
    {
      "bufferView": 27,
      "componentType": 5123,
      "count": 3987,
      "type": "SCALAR"
    },
    {
      "bufferView": 28,
      "componentType": 5126,
      "count": 3660,
      "max": [
        0.019805023446679115,
        0.061200134456157684,
        0.01435007806867361
      ],
      "min": [
        0.003805022919550538,
        0.04700005054473877,
        -0.0003998458560090512
      ],
      "type": "VEC3"
    },
    {
      "bufferView": 29,
      "componentType": 5126,
      "count": 3660,
      "type": "VEC3"
    },
    {
      "bufferView": 30,
      "componentType": 5126,
      "count": 3660,
      "type": "VEC2"
    },
    {
      "bufferView": 31,
      "componentType": 5123,
      "count": 9795,
      "type": "SCALAR"
    },
    {
      "bufferView": 32,
      "componentType": 5126,
      "count": 841,
      "max": [
        0.0902351513504982,
        0.06151492893695831,
        0.004050339572131634
      ],
      "min": [
        0.07326515018939972,
        0.05701528489589691,
        0.0020501522812992334
      ],
      "type": "VEC3"
    },
    {
      "bufferView": 33,
      "componentType": 5126,
      "count": 841,
      "type": "VEC3"
    },
    {
      "bufferView": 34,
      "componentType": 5126,
      "count": 841,
      "type": "VEC2"
    },
    {
      "bufferView": 35,
      "componentType": 5123,
      "count": 3744,
      "type": "SCALAR"
    },
    {
      "bufferView": 36,
      "componentType": 5126,
      "count": 875,
      "max": [
        0.0797351524233818,
        0.06151404231786728,
        0.004048503935337067
      ],
      "min": [
        0.020450027659535408,
        0.002688492415472865,
        -0.006500000134110451
      ],
      "type": "VEC3"
    },
    {
      "bufferView": 37,
      "componentType": 5126,
      "count": 875,
      "type": "VEC3"
    },
    {
      "bufferView": 38,
      "componentType": 5126,
      "count": 875,
      "type": "VEC2"
    },
    {
      "bufferView": 39,
      "componentType": 5123,
      "count": 3798,
      "type": "SCALAR"
    },
    {
      "bufferView": 40,
      "componentType": 5126,
      "count": 315,
      "max": [
        0.05036509409546852,
        0.05346016213297844,
        0.0013500913046300411
      ],
      "min": [
        0.04363509267568588,
        0.05291011184453964,
        0.0012001523282378912
      ],
      "type": "VEC3"
    },
    {
      "bufferView": 41,
      "componentType": 5126,
      "count": 315,
      "type": "VEC3"
    },
    {
      "bufferView": 42,
      "componentType": 5126,
      "count": 315,
      "type": "VEC2"
    },
    {
      "bufferView": 43,
      "componentType": 5123,
      "count": 501,
      "type": "SCALAR"
    },
    {
      "bufferView": 44,
      "componentType": 5126,
      "count": 1392,
      "max": [
        0.026068760082125664,
        0.06030005216598511,
        0.011064205318689346
      ],
      "min": [
        0.0054300278425216675,
        0.0026684924960136414,
        -0.006500000134110451
      ],
      "type": "VEC3"
    },
    {
      "bufferView": 45,
      "componentType": 5126,
      "count": 1392,
      "type": "VEC3"
    },
    {
      "bufferView": 46,
      "componentType": 5126,
      "count": 1392,
      "type": "VEC2"
    },
    {
      "bufferView": 47,
      "componentType": 5123,
      "count": 3078,
      "type": "SCALAR"
    }
  ],
  "bufferViews": [
    {
      "buffer": 0,
      "byteLength": 151272,
      "byteOffset": 0,
      "target": 34962
    },
    {
      "buffer": 0,
      "byteLength": 151272,
      "byteOffset": 151272,
      "target": 34962
    },
    {
      "buffer": 0,
      "byteLength": 100848,
      "byteOffset": 302544,
      "target": 34962
    },
    {
      "buffer": 0,
      "byteLength": 59112,
      "byteOffset": 403392,
      "target": 34963
    },
    {
      "buffer": 0,
      "byteLength": 65640,
      "byteOffset": 462504,
      "target": 34962
    },
    {
      "buffer": 0,
      "byteLength": 65640,
      "byteOffset": 528144,
      "target": 34962
    },
    {
      "buffer": 0,
      "byteLength": 43760,
      "byteOffset": 593784,
      "target": 34962
    },
    {
      "buffer": 0,
      "byteLength": 27180,
      "byteOffset": 637544,
      "target": 34963
    },
    {
      "buffer": 0,
      "byteLength": 38160,
      "byteOffset": 664724,
      "target": 34962
    },
    {
      "buffer": 0,
      "byteLength": 38160,
      "byteOffset": 702884,
      "target": 34962
    },
    {
      "buffer": 0,
      "byteLength": 25440,
      "byteOffset": 741044,
      "target": 34962
    },
    {
      "buffer": 0,
      "byteLength": 17472,
      "byteOffset": 766484,
      "target": 34963
    },
    {
      "buffer": 0,
      "byteLength": 20676,
      "byteOffset": 783956,
      "target": 34962
    },
    {
      "buffer": 0,
      "byteLength": 20676,
      "byteOffset": 804632,
      "target": 34962
    },
    {
      "buffer": 0,
      "byteLength": 13784,
      "byteOffset": 825308,
      "target": 34962
    },
    {
      "buffer": 0,
      "byteLength": 8448,
      "byteOffset": 839092,
      "target": 34963
    },
    {
      "buffer": 0,
      "byteLength": 22548,
      "byteOffset": 847540,
      "target": 34962
    },
    {
      "buffer": 0,
      "byteLength": 22548,
      "byteOffset": 870088,
      "target": 34962
    },
    {
      "buffer": 0,
      "byteLength": 15032,
      "byteOffset": 892636,
      "target": 34962
    },
    {
      "buffer": 0,
      "byteLength": 9744,
      "byteOffset": 907668,
      "target": 34963
    },
    {
      "buffer": 0,
      "byteLength": 12756,
      "byteOffset": 917412,
      "target": 34962
    },
    {
      "buffer": 0,
      "byteLength": 12756,
      "byteOffset": 930168,
      "target": 34962
    },
    {
      "buffer": 0,
      "byteLength": 8504,
      "byteOffset": 942924,
      "target": 34962
    },
    {
      "buffer": 0,
      "byteLength": 5780,
      "byteOffset": 951428,
      "target": 34963
    },
    {
      "buffer": 0,
      "byteLength": 19596,
      "byteOffset": 957208,
      "target": 34962
    },
    {
      "buffer": 0,
      "byteLength": 19596,
      "byteOffset": 976804,
      "target": 34962
    },
    {
      "buffer": 0,
      "byteLength": 13064,
      "byteOffset": 996400,
      "target": 34962
    },
    {
      "buffer": 0,
      "byteLength": 7976,
      "byteOffset": 1009464,
      "target": 34963
    },
    {
      "buffer": 0,
      "byteLength": 43920,
      "byteOffset": 1017440,
      "target": 34962
    },
    {
      "buffer": 0,
      "byteLength": 43920,
      "byteOffset": 1061360,
      "target": 34962
    },
    {
      "buffer": 0,
      "byteLength": 29280,
      "byteOffset": 1105280,
      "target": 34962
    },
    {
      "buffer": 0,
      "byteLength": 19592,
      "byteOffset": 1134560,
      "target": 34963
    },
    {
      "buffer": 0,
      "byteLength": 10092,
      "byteOffset": 1154152,
      "target": 34962
    },
    {
      "buffer": 0,
      "byteLength": 10092,
      "byteOffset": 1164244,
      "target": 34962
    },
    {
      "buffer": 0,
      "byteLength": 6728,
      "byteOffset": 1174336,
      "target": 34962
    },
    {
      "buffer": 0,
      "byteLength": 7488,
      "byteOffset": 1181064,
      "target": 34963
    },
    {
      "buffer": 0,
      "byteLength": 10500,
      "byteOffset": 1188552,
      "target": 34962
    },
    {
      "buffer": 0,
      "byteLength": 10500,
      "byteOffset": 1199052,
      "target": 34962
    },
    {
      "buffer": 0,
      "byteLength": 7000,
      "byteOffset": 1209552,
      "target": 34962
    },
    {
      "buffer": 0,
      "byteLength": 7596,
      "byteOffset": 1216552,
      "target": 34963
    },
    {
      "buffer": 0,
      "byteLength": 3780,
      "byteOffset": 1224148,
      "target": 34962
    },
    {
      "buffer": 0,
      "byteLength": 3780,
      "byteOffset": 1227928,
      "target": 34962
    },
    {
      "buffer": 0,
      "byteLength": 2520,
      "byteOffset": 1231708,
      "target": 34962
    },
    {
      "buffer": 0,
      "byteLength": 1004,
      "byteOffset": 1234228,
      "target": 34963
    },
    {
      "buffer": 0,
      "byteLength": 16704,
      "byteOffset": 1235232,
      "target": 34962
    },
    {
      "buffer": 0,
      "byteLength": 16704,
      "byteOffset": 1251936,
      "target": 34962
    },
    {
      "buffer": 0,
      "byteLength": 11136,
      "byteOffset": 1268640,
      "target": 34962
    },
    {
      "buffer": 0,
      "byteLength": 6156,
      "byteOffset": 1279776,
      "target": 34963
    }
  ],
  "buffers": [
    {
      "uri": "im2620c-ec_data.bin",
      "byteLength": 1285932
    }
  ]
}