<?xml version="1.0" encoding="UTF-8" standalone="no"?>
<svg
   width="141.73pt"
   height="141.73pt"
   viewBox="0 0 141.73 141.73"
   version="1.1"
   id="svg26"
   sodipodi:docname="EC_3DPRINT.svg"
   inkscape:version="1.4.3 (0d15f75, 2025-12-25)"
   xmlns:inkscape="http://www.inkscape.org/namespaces/inkscape"
   xmlns:sodipodi="http://sodipodi.sourceforge.net/DTD/sodipodi-0.dtd"
   xmlns="http://www.w3.org/2000/svg"
   xmlns:svg="http://www.w3.org/2000/svg">
  <defs
     id="defs26" />
  <sodipodi:namedview
     id="namedview26"
     pagecolor="#ffffff"
     bordercolor="#000000"
     borderopacity="0.25"
     inkscape:showpageshadow="2"
     inkscape:pageopacity="0.0"
     inkscape:pagecheckerboard="0"
     inkscape:deskcolor="#d1d1d1"
     inkscape:document-units="pt"
     inkscape:zoom="11.313709"
     inkscape:cx="84.720231"
     inkscape:cy="96.210716"
     inkscape:window-width="2560"
     inkscape:window-height="1377"
     inkscape:window-x="2552"
     inkscape:window-y="-8"
     inkscape:window-maximized="1"
     inkscape:current-layer="svg26" />
  <g
     id="surface1">
    <path
       style=" stroke:none;fill-rule:nonzero;fill:rgb(14.117432%,12.548828%,12.548828%);fill-opacity:1;"
       d="M 93.230469 60.34375 L 103.433594 68.476562 L 103.433594 64.628906 L 116.195312 64.628906 L 116.195312 60.339844 "
       id="path1" />
    <path
       style=" stroke:none;fill-rule:nonzero;fill:rgb(92.549133%,14.117432%,15.293884%);fill-opacity:1;"
       d="M 116.195312 58.710938 L 105.988281 50.578125 L 105.988281 54.425781 L 75.375 54.421875 L 75.375 58.710938 "
       id="path2" />
    <path
       style=" stroke:none;fill-rule:nonzero;fill:rgb(14.117432%,12.548828%,12.548828%);fill-opacity:1;"
       d="M 59.011719 71.242188 C 59.855469 71.242188 60.660156 71.042969 61.496094 70.710938 L 60.257812 74.863281 C 59.601562 75 58.875 75.097656 58.183594 75.097656 C 54.09375 75.097656 50.816406 72.566406 50.816406 67.402344 C 50.816406 62.550781 54.234375 60.125 58.183594 60.125 C 59.488281 60.125 60.265625 60.3125 61.53125 60.582031 L 61.53125 64.398438 C 60.757812 64.105469 59.964844 63.859375 59.171875 63.859375 C 57.160156 63.859375 55.644531 65.121094 55.644531 67.488281 C 55.644531 69.976562 57.054688 71.242188 59.011719 71.242188 "
       id="path18" />
    <path
       style=" stroke:none;fill-rule:evenodd;fill:rgb(14.117432%,12.548828%,12.548828%);fill-opacity:1;"
       d="M 61.625 74.851562 L 66.332031 74.851562 L 67.089844 71.71875 L 71.074219 71.71875 L 71.886719 74.851562 L 76.839844 74.851562 L 72.449219 60.375 L 65.945312 60.375 Z M 69.101562 63.484375 L 69.136719 63.484375 L 70.476562 68.234375 L 67.742188 68.234375 Z M 69.101562 63.484375 "
       id="path19" />
    <path
       style=" stroke:none;fill-rule:nonzero;fill:rgb(14.117432%,12.548828%,12.548828%);fill-opacity:1;"
       d="M 22.191406 72.824219 C 21.832031 72.980469 21.496094 73.113281 21.027344 73.113281 C 20.179688 73.113281 19.84375 72.621094 19.84375 71.328125 L 19.84375 64.605469 L 22.191406 64.605469 L 22.191406 63.085938 L 19.84375 63.085938 L 19.84375 59.070312 L 17.96875 59.070312 L 17.96875 63.085938 L 16.160156 63.085938 L 16.160156 64.605469 L 17.96875 64.605469 L 17.96875 71.929688 C 17.96875 73.941406 18.886719 74.632812 20.605469 74.632812 C 21.117188 74.632812 21.742188 74.496094 22.191406 74.339844 L 22.191406 72.824219 "
       id="path20" />
    <path
       style=" stroke:none;fill-rule:nonzero;fill:rgb(14.117432%,12.548828%,12.548828%);fill-opacity:1;"
       d="M 7.1875 74.625 L 14.734375 74.625 L 14.734375 72.929688 L 9.152344 72.929688 L 9.152344 67.390625 L 14.199219 67.390625 L 14.199219 65.695312 L 9.152344 65.695312 L 9.152344 60.738281 L 14.445312 60.738281 L 14.445312 59.039062 L 7.1875 59.039062 "
       id="path21" />
    <path
       style=" stroke:none;fill-rule:nonzero;fill:rgb(14.117432%,12.548828%,12.548828%);fill-opacity:1;"
       d="M 23.769531 74.625 L 25.648438 74.625 L 25.648438 67.769531 C 25.648438 65.714844 26.585938 64.6875 28.058594 64.6875 C 29.265625 64.6875 29.9375 65.472656 29.9375 67.277344 L 29.9375 74.625 L 31.8125 74.625 L 31.8125 66.722656 C 31.8125 64.21875 30.472656 63.082031 28.484375 63.082031 C 27.164062 63.082031 26.183594 63.839844 25.691406 64.800781 L 25.648438 64.800781 L 25.648438 59.070312 L 23.769531 59.070312 L 23.769531 74.625 "
       id="path22" />
    <path
       style=" stroke:none;fill-rule:evenodd;fill:rgb(14.117432%,12.548828%,12.548828%);fill-opacity:1;"
       d="M 42.367188 69.488281 L 42.367188 68.484375 C 42.367188 65.136719 40.9375 63.082031 38.367188 63.082031 C 35.53125 63.082031 33.96875 65.359375 33.96875 68.933594 C 33.96875 72.503906 35.53125 74.78125 38.546875 74.78125 C 39.6875 74.78125 40.847656 74.535156 41.742188 74.113281 L 41.652344 72.414062 C 41.003906 72.882812 39.976562 73.351562 39.039062 73.351562 C 36.964844 73.351562 35.9375 72.125 35.9375 69.488281 Z M 35.9375 68.0625 C 35.980469 65.402344 37.050781 64.511719 38.257812 64.511719 C 39.753906 64.511719 40.492188 65.695312 40.492188 68.0625 L 35.9375 68.0625 "
       id="path23" />
    <path
       style=" stroke:none;fill-rule:nonzero;fill:rgb(14.117432%,12.548828%,12.548828%);fill-opacity:1;"
       d="M 44.4375 74.625 L 46.308594 74.625 L 46.308594 68.597656 C 46.308594 66.117188 47.339844 64.867188 48.789062 64.867188 C 49.035156 64.867188 49.28125 64.890625 49.503906 64.933594 L 49.503906 63.082031 C 47.828125 63.082031 46.867188 63.640625 46.265625 65.023438 L 46.222656 65.023438 L 46.152344 63.238281 L 44.34375 63.238281 C 44.367188 64.042969 44.4375 64.867188 44.4375 65.695312 L 44.4375 74.625 "
       id="path24" />
    <path
       style=" stroke:none;fill-rule:nonzero;fill:rgb(14.117432%,12.548828%,12.548828%);fill-opacity:1;"
       d="M 75.375 60.339844 L 90.683594 60.339844 L 90.683594 64.628906 L 85.394531 64.628906 L 85.394531 74.832031 L 80.664062 74.832031 L 80.664062 64.628906 L 75.375 64.628906 "
       id="path26" />
  </g>
</svg>
