<?xml version="1.0" encoding="UTF-8"?>
<svg xmlns="http://www.w3.org/2000/svg" xmlns:xlink="http://www.w3.org/1999/xlink" width="141.73pt" height="141.73pt" viewBox="0 0 141.73 141.73" version="1.1">
<g id="surface1">
<path style=" stroke:none;fill-rule:nonzero;fill:rgb(14.117432%,12.548828%,12.548828%);fill-opacity:1;" d="M 93.230469 60.34375 L 103.433594 68.476562 L 103.433594 64.628906 L 116.195312 64.628906 L 116.195312 60.339844 "/>
<path style=" stroke:none;fill-rule:nonzero;fill:rgb(92.549133%,14.117432%,15.293884%);fill-opacity:1;" d="M 116.195312 58.710938 L 105.988281 50.578125 L 105.988281 54.425781 L 75.375 54.421875 L 75.375 58.710938 "/>
<path style=" stroke:none;fill-rule:nonzero;fill:rgb(14.117432%,12.548828%,12.548828%);fill-opacity:1;" d="M 54.394531 85.058594 L 55.308594 85.058594 L 55.308594 78.601562 L 56.96875 78.601562 L 56.96875 77.8125 L 52.734375 77.8125 L 52.734375 78.601562 L 54.394531 78.601562 "/>
<path style=" stroke:none;fill-rule:evenodd;fill:rgb(14.117432%,12.548828%,12.548828%);fill-opacity:1;" d="M 60.660156 82.667969 L 60.660156 82.203125 C 60.660156 80.648438 59.996094 79.691406 58.804688 79.691406 C 57.488281 79.691406 56.761719 80.75 56.761719 82.410156 C 56.761719 84.070312 57.488281 85.128906 58.886719 85.128906 C 59.417969 85.128906 59.957031 85.015625 60.371094 84.816406 L 60.332031 84.03125 C 60.027344 84.246094 59.550781 84.464844 59.117188 84.464844 C 58.152344 84.464844 57.671875 83.894531 57.671875 82.667969 Z M 57.671875 82.003906 C 57.695312 80.769531 58.191406 80.355469 58.753906 80.355469 C 59.449219 80.355469 59.789062 80.90625 59.789062 82.003906 L 57.671875 82.003906 "/>
<path style=" stroke:none;fill-rule:nonzero;fill:rgb(14.117432%,12.548828%,12.548828%);fill-opacity:1;" d="M 64.777344 79.898438 C 64.5 79.765625 64.09375 79.691406 63.730469 79.691406 C 62.257812 79.691406 61.363281 80.75 61.363281 82.460938 C 61.363281 83.957031 62.132812 85.128906 63.710938 85.128906 C 64.09375 85.128906 64.5625 85.015625 64.820312 84.902344 L 64.777344 84.101562 C 64.480469 84.257812 64.125 84.382812 63.710938 84.382812 C 62.859375 84.382812 62.277344 83.6875 62.277344 82.460938 C 62.277344 81.03125 62.878906 80.4375 63.730469 80.4375 C 64.136719 80.4375 64.4375 80.523438 64.738281 80.6875 L 64.777344 79.898438 "/>
<path style=" stroke:none;fill-rule:nonzero;fill:rgb(14.117432%,12.548828%,12.548828%);fill-opacity:1;" d="M 65.660156 85.058594 L 66.53125 85.058594 L 66.53125 81.871094 C 66.53125 80.914062 66.964844 80.4375 67.652344 80.4375 C 68.210938 80.4375 68.523438 80.800781 68.523438 81.644531 L 68.523438 85.058594 L 69.394531 85.058594 L 69.394531 81.382812 C 69.394531 80.222656 68.769531 79.691406 67.851562 79.691406 C 67.234375 79.691406 66.78125 80.042969 66.550781 80.492188 L 66.53125 80.492188 L 66.53125 77.273438 L 65.660156 77.273438 L 65.660156 85.058594 "/>
<path style=" stroke:none;fill-rule:nonzero;fill:rgb(14.117432%,12.548828%,12.548828%);fill-opacity:1;" d="M 70.660156 85.058594 L 71.53125 85.058594 L 71.53125 81.871094 C 71.53125 80.914062 71.96875 80.4375 72.652344 80.4375 C 73.210938 80.4375 73.523438 80.800781 73.523438 81.644531 L 73.523438 85.058594 L 74.394531 85.058594 L 74.394531 81.382812 C 74.394531 80.222656 73.769531 79.691406 72.851562 79.691406 C 72.238281 79.691406 71.789062 79.949219 71.511719 80.554688 L 71.488281 80.554688 L 71.457031 79.765625 L 70.617188 79.765625 C 70.628906 80.136719 70.660156 80.523438 70.660156 80.90625 L 70.660156 85.058594 "/>
<path style=" stroke:none;fill-rule:evenodd;fill:rgb(14.117432%,12.548828%,12.548828%);fill-opacity:1;" d="M 76.3125 82.410156 C 76.3125 81.082031 76.695312 80.398438 77.527344 80.398438 C 78.359375 80.398438 78.742188 81.082031 78.742188 82.410156 C 78.742188 83.738281 78.359375 84.421875 77.527344 84.421875 C 76.695312 84.421875 76.3125 83.738281 76.3125 82.410156 M 75.398438 82.410156 C 75.398438 84.070312 76.128906 85.128906 77.527344 85.128906 C 78.929688 85.128906 79.65625 84.070312 79.65625 82.410156 C 79.65625 80.75 78.929688 79.691406 77.527344 79.691406 C 76.128906 79.691406 75.398438 80.75 75.398438 82.410156 "/>
<path style=" stroke:none;fill-rule:nonzero;fill:rgb(14.117432%,12.548828%,12.548828%);fill-opacity:1;" d="M 80.742188 85.058594 L 81.613281 85.058594 L 81.613281 77.273438 L 80.742188 77.273438 Z M 80.742188 85.058594 "/>
<path style=" stroke:none;fill-rule:evenodd;fill:rgb(14.117432%,12.548828%,12.548828%);fill-opacity:1;" d="M 83.613281 82.410156 C 83.613281 81.082031 84 80.398438 84.828125 80.398438 C 85.660156 80.398438 86.042969 81.082031 86.042969 82.410156 C 86.042969 83.738281 85.660156 84.421875 84.828125 84.421875 C 84 84.421875 83.613281 83.738281 83.613281 82.410156 M 82.703125 82.410156 C 82.703125 84.070312 83.429688 85.128906 84.828125 85.128906 C 86.230469 85.128906 86.957031 84.070312 86.957031 82.410156 C 86.957031 80.75 86.230469 79.691406 84.828125 79.691406 C 83.429688 79.691406 82.703125 80.75 82.703125 82.410156 "/>
<path style=" stroke:none;fill-rule:evenodd;fill:rgb(14.117432%,12.548828%,12.548828%);fill-opacity:1;" d="M 88.574219 82.410156 C 88.574219 81.082031 88.9375 80.398438 89.734375 80.398438 C 90.535156 80.398438 90.898438 81.082031 90.898438 82.410156 C 90.898438 83.738281 90.535156 84.421875 89.734375 84.421875 C 88.9375 84.421875 88.574219 83.738281 88.574219 82.410156 M 91.769531 80.730469 C 91.769531 80.40625 91.800781 80.074219 91.8125 79.765625 L 90.972656 79.765625 L 90.941406 80.53125 L 90.917969 80.53125 C 90.628906 80.023438 90.152344 79.691406 89.621094 79.691406 C 88.4375 79.691406 87.703125 80.582031 87.703125 82.410156 C 87.703125 84.238281 88.4375 85.128906 89.527344 85.128906 C 90.109375 85.128906 90.578125 84.839844 90.917969 84.238281 L 90.941406 84.238281 L 90.941406 85.066406 C 90.941406 85.980469 90.523438 86.613281 89.457031 86.613281 C 88.980469 86.613281 88.375 86.40625 88.003906 86.15625 L 87.960938 87.039062 C 88.34375 87.195312 89.0625 87.359375 89.507812 87.359375 C 90.667969 87.359375 91.769531 86.75 91.769531 85.285156 L 91.769531 80.730469 "/>
<path style=" stroke:none;fill-rule:nonzero;fill:rgb(14.117432%,12.548828%,12.548828%);fill-opacity:1;" d="M 96.449219 79.765625 L 95.578125 79.765625 L 94.476562 84.082031 L 94.457031 84.082031 L 93.273438 79.765625 L 92.359375 79.765625 L 94.03125 85.140625 L 93.824219 85.949219 C 93.679688 86.5 93.492188 86.613281 93.242188 86.613281 C 93.054688 86.613281 92.898438 86.570312 92.765625 86.511719 L 92.722656 87.296875 C 92.878906 87.339844 93.105469 87.359375 93.316406 87.359375 C 93.980469 87.359375 94.351562 87.039062 94.613281 86.136719 L 96.449219 79.765625 "/>
<path style=" stroke:none;fill-rule:nonzero;fill:rgb(14.117432%,12.548828%,12.548828%);fill-opacity:1;" d="M 104.585938 81.070312 L 102.496094 81.070312 L 102.496094 81.859375 L 103.710938 81.859375 L 103.710938 84.144531 C 103.476562 84.269531 103.101562 84.339844 102.808594 84.339844 C 101.230469 84.339844 100.484375 83.105469 100.484375 81.238281 C 100.484375 79.472656 101.5625 78.53125 102.746094 78.53125 C 103.277344 78.53125 103.890625 78.695312 104.4375 78.976562 L 104.4375 78.0625 C 103.941406 77.824219 103.359375 77.742188 102.738281 77.742188 C 100.847656 77.742188 99.53125 79.164062 99.53125 81.425781 C 99.53125 83.386719 100.496094 85.128906 102.789062 85.128906 C 103.433594 85.128906 104.15625 84.910156 104.585938 84.753906 L 104.585938 81.070312 "/>
<path style=" stroke:none;fill-rule:nonzero;fill:rgb(14.117432%,12.548828%,12.548828%);fill-opacity:1;" d="M 106.011719 85.058594 L 106.886719 85.058594 L 106.886719 82.253906 C 106.886719 81.101562 107.363281 80.523438 108.035156 80.523438 C 108.152344 80.523438 108.265625 80.53125 108.367188 80.554688 L 108.367188 79.691406 C 107.589844 79.691406 107.144531 79.949219 106.863281 80.59375 L 106.84375 80.59375 L 106.8125 79.765625 L 105.972656 79.765625 C 105.980469 80.136719 106.011719 80.523438 106.011719 80.90625 L 106.011719 85.058594 "/>
<path style=" stroke:none;fill-rule:evenodd;fill:rgb(14.117432%,12.548828%,12.548828%);fill-opacity:1;" d="M 109.738281 82.410156 C 109.738281 81.082031 110.121094 80.398438 110.953125 80.398438 C 111.78125 80.398438 112.167969 81.082031 112.167969 82.410156 C 112.167969 83.738281 111.78125 84.421875 110.953125 84.421875 C 110.121094 84.421875 109.738281 83.738281 109.738281 82.410156 M 108.824219 82.410156 C 108.824219 84.070312 109.550781 85.128906 110.953125 85.128906 C 112.355469 85.128906 113.078125 84.070312 113.078125 82.410156 C 113.078125 80.75 112.355469 79.691406 110.953125 79.691406 C 109.550781 79.691406 108.824219 80.75 108.824219 82.410156 "/>
<path style=" stroke:none;fill-rule:nonzero;fill:rgb(14.117432%,12.548828%,12.548828%);fill-opacity:1;" d="M 117.820312 79.765625 L 116.949219 79.765625 L 116.949219 82.949219 C 116.949219 83.90625 116.511719 84.382812 115.828125 84.382812 C 115.269531 84.382812 114.957031 84.019531 114.957031 83.179688 L 114.957031 79.765625 L 114.085938 79.765625 L 114.085938 83.4375 C 114.085938 84.601562 114.707031 85.128906 115.632812 85.128906 C 116.242188 85.128906 116.691406 84.871094 116.96875 84.269531 L 116.992188 84.269531 L 117.019531 85.058594 L 117.863281 85.058594 C 117.851562 84.683594 117.820312 84.296875 117.820312 83.914062 L 117.820312 79.765625 "/>
<path style=" stroke:none;fill-rule:evenodd;fill:rgb(14.117432%,12.548828%,12.548828%);fill-opacity:1;" d="M 119.875 82.410156 C 119.875 81.082031 120.238281 80.398438 121.035156 80.398438 C 121.835938 80.398438 122.199219 81.082031 122.199219 82.410156 C 122.199219 83.738281 121.835938 84.421875 121.035156 84.421875 C 120.238281 84.421875 119.875 83.738281 119.875 82.410156 M 119.003906 87.296875 L 119.875 87.296875 L 119.875 84.332031 L 119.894531 84.332031 C 120.246094 84.890625 120.640625 85.128906 121.242188 85.128906 C 122.332031 85.128906 123.070312 84.238281 123.070312 82.410156 C 123.070312 80.582031 122.332031 79.691406 121.242188 79.691406 C 120.476562 79.691406 120.082031 80.128906 119.855469 80.542969 L 119.832031 80.542969 L 119.800781 79.765625 L 118.960938 79.765625 C 118.972656 80.085938 119.003906 80.417969 119.003906 80.738281 L 119.003906 87.296875 "/>
<path style=" stroke:none;fill-rule:nonzero;fill:rgb(14.117432%,12.548828%,12.548828%);fill-opacity:1;" d="M 59.011719 71.242188 C 59.855469 71.242188 60.660156 71.042969 61.496094 70.710938 L 60.257812 74.863281 C 59.601562 75 58.875 75.097656 58.183594 75.097656 C 54.09375 75.097656 50.816406 72.566406 50.816406 67.402344 C 50.816406 62.550781 54.234375 60.125 58.183594 60.125 C 59.488281 60.125 60.265625 60.3125 61.53125 60.582031 L 61.53125 64.398438 C 60.757812 64.105469 59.964844 63.859375 59.171875 63.859375 C 57.160156 63.859375 55.644531 65.121094 55.644531 67.488281 C 55.644531 69.976562 57.054688 71.242188 59.011719 71.242188 "/>
<path style=" stroke:none;fill-rule:evenodd;fill:rgb(14.117432%,12.548828%,12.548828%);fill-opacity:1;" d="M 61.625 74.851562 L 66.332031 74.851562 L 67.089844 71.71875 L 71.074219 71.71875 L 71.886719 74.851562 L 76.839844 74.851562 L 72.449219 60.375 L 65.945312 60.375 Z M 69.101562 63.484375 L 69.136719 63.484375 L 70.476562 68.234375 L 67.742188 68.234375 Z M 69.101562 63.484375 "/>
<path style=" stroke:none;fill-rule:nonzero;fill:rgb(14.117432%,12.548828%,12.548828%);fill-opacity:1;" d="M 22.191406 72.824219 C 21.832031 72.980469 21.496094 73.113281 21.027344 73.113281 C 20.179688 73.113281 19.84375 72.621094 19.84375 71.328125 L 19.84375 64.605469 L 22.191406 64.605469 L 22.191406 63.085938 L 19.84375 63.085938 L 19.84375 59.070312 L 17.96875 59.070312 L 17.96875 63.085938 L 16.160156 63.085938 L 16.160156 64.605469 L 17.96875 64.605469 L 17.96875 71.929688 C 17.96875 73.941406 18.886719 74.632812 20.605469 74.632812 C 21.117188 74.632812 21.742188 74.496094 22.191406 74.339844 L 22.191406 72.824219 "/>
<path style=" stroke:none;fill-rule:nonzero;fill:rgb(14.117432%,12.548828%,12.548828%);fill-opacity:1;" d="M 7.1875 74.625 L 14.734375 74.625 L 14.734375 72.929688 L 9.152344 72.929688 L 9.152344 67.390625 L 14.199219 67.390625 L 14.199219 65.695312 L 9.152344 65.695312 L 9.152344 60.738281 L 14.445312 60.738281 L 14.445312 59.039062 L 7.1875 59.039062 "/>
<path style=" stroke:none;fill-rule:nonzero;fill:rgb(14.117432%,12.548828%,12.548828%);fill-opacity:1;" d="M 23.769531 74.625 L 25.648438 74.625 L 25.648438 67.769531 C 25.648438 65.714844 26.585938 64.6875 28.058594 64.6875 C 29.265625 64.6875 29.9375 65.472656 29.9375 67.277344 L 29.9375 74.625 L 31.8125 74.625 L 31.8125 66.722656 C 31.8125 64.21875 30.472656 63.082031 28.484375 63.082031 C 27.164062 63.082031 26.183594 63.839844 25.691406 64.800781 L 25.648438 64.800781 L 25.648438 59.070312 L 23.769531 59.070312 L 23.769531 74.625 "/>
<path style=" stroke:none;fill-rule:evenodd;fill:rgb(14.117432%,12.548828%,12.548828%);fill-opacity:1;" d="M 42.367188 69.488281 L 42.367188 68.484375 C 42.367188 65.136719 40.9375 63.082031 38.367188 63.082031 C 35.53125 63.082031 33.96875 65.359375 33.96875 68.933594 C 33.96875 72.503906 35.53125 74.78125 38.546875 74.78125 C 39.6875 74.78125 40.847656 74.535156 41.742188 74.113281 L 41.652344 72.414062 C 41.003906 72.882812 39.976562 73.351562 39.039062 73.351562 C 36.964844 73.351562 35.9375 72.125 35.9375 69.488281 Z M 35.9375 68.0625 C 35.980469 65.402344 37.050781 64.511719 38.257812 64.511719 C 39.753906 64.511719 40.492188 65.695312 40.492188 68.0625 L 35.9375 68.0625 "/>
<path style=" stroke:none;fill-rule:nonzero;fill:rgb(14.117432%,12.548828%,12.548828%);fill-opacity:1;" d="M 44.4375 74.625 L 46.308594 74.625 L 46.308594 68.597656 C 46.308594 66.117188 47.339844 64.867188 48.789062 64.867188 C 49.035156 64.867188 49.28125 64.890625 49.503906 64.933594 L 49.503906 63.082031 C 47.828125 63.082031 46.867188 63.640625 46.265625 65.023438 L 46.222656 65.023438 L 46.152344 63.238281 L 44.34375 63.238281 C 44.367188 64.042969 44.4375 64.867188 44.4375 65.695312 L 44.4375 74.625 "/>
<path style=" stroke:none;fill-rule:evenodd;fill:rgb(14.117432%,12.548828%,12.548828%);fill-opacity:1;" d="M 88.96875 71.972656 L 89.371094 71.972656 C 89.601562 71.972656 89.859375 72.019531 89.859375 72.300781 C 89.859375 72.625 89.628906 72.660156 89.363281 72.660156 L 88.96875 72.660156 Z M 88.519531 74.039062 L 88.96875 74.039062 L 88.96875 73.003906 L 89.238281 73.003906 L 89.863281 74.039062 L 90.324219 74.039062 L 89.675781 72.984375 C 90.070312 72.949219 90.304688 72.75 90.304688 72.335938 C 90.304688 71.832031 89.992188 71.632812 89.417969 71.632812 L 88.519531 71.632812 Z M 89.339844 74.558594 C 88.453125 74.558594 87.734375 73.839844 87.734375 72.84375 C 87.734375 71.847656 88.453125 71.132812 89.339844 71.132812 C 90.230469 71.132812 90.945312 71.847656 90.945312 72.84375 C 90.945312 73.839844 90.230469 74.558594 89.339844 74.558594 M 89.339844 74.96875 C 90.511719 74.96875 91.464844 74.015625 91.464844 72.84375 C 91.464844 71.671875 90.511719 70.71875 89.339844 70.71875 C 88.167969 70.71875 87.214844 71.671875 87.214844 72.84375 C 87.214844 74.015625 88.167969 74.96875 89.339844 74.96875 "/>
<path style=" stroke:none;fill-rule:nonzero;fill:rgb(14.117432%,12.548828%,12.548828%);fill-opacity:1;" d="M 75.375 60.339844 L 90.683594 60.339844 L 90.683594 64.628906 L 85.394531 64.628906 L 85.394531 74.832031 L 80.664062 74.832031 L 80.664062 64.628906 L 75.375 64.628906 "/>
</g>
</svg>
