<?xml version="1.0" encoding="utf-8"?>
<!-- Generator: Adobe Illustrator 19.2.1, SVG Export Plug-In . SVG Version: 6.00 Build 0)  -->
<svg version="1.1" id="layer" xmlns="http://www.w3.org/2000/svg" xmlns:xlink="http://www.w3.org/1999/xlink" x="0px" y="0px"
	 viewBox="0 0 652 652" style="enable-background:new 0 0 652 652;" xml:space="preserve">
<style type="text/css">
	.st0{fill:#D0D1D8;}
	.st1{fill:#0064AD;}
	.st2{fill:#525666;}
	.st3{fill:#2BA47B;}
</style>
<g>
	<path class="st0" d="M397.3,209.5c0,0-25.7,0-31.2,25.7l-27.3,128.6c0,0-5.5,25.7,20.2,25.7h77.1c0,0,25.7,0,31.2-25.7l27.3-128.6
		c0,0,5.5-25.7-20.2-25.7H397.3z"/>
	<path class="st1" d="M253.3,209.5c0,0-25.7,0-31.2,25.7l-27.3,128.6c0,0-5.5,25.7,20.2,25.7h77.1c0,0,25.7,0,31.2-25.7l27.3-128.6
		c0,0,5.5-25.7-20.2-25.7H253.3z"/>
	<path d="M144.8,389.5h29.1l38.3-180H183L144.8,389.5z M88.4,235.1c3.2-0.8,9.1-1.6,17.1-1.6c20.1,0,30.1,10.7,25.9,30.7
		c-4.5,21.1-20.3,33.1-42,33.1c-5.9,0-10.6-0.3-13.9-1.3L88.4,235.1z M26.8,389.5h28.9L70,321.8c3.6,0.8,8.5,1.1,14,1.1
		c20.6,0,40.1-6.1,54.5-19.2c11-9.6,18.8-23.7,22.4-40.8c3.6-16.8,0.4-30.9-7.2-39.7c-8.1-9.6-22.7-14.7-43.9-14.7
		c-19.6,0-34.4,1.6-45.3,3.7L26.8,389.5z"/>
</g>
<g>
	<path class="st2" d="M579.3,442.4h5.8l5.7-26.9h9.2l1-4.9h-24l-1,4.9h9.1L579.3,442.4z M563.9,423.6h-12l1.7-8.2h12.7l1-4.8h-18.5
		l-6.8,31.8h19.2l1-4.8h-13.4l2-9.3h12L563.9,423.6z M509.2,442.4l2.4-11.4c1.1-5.2,2-9.4,2.6-13.5l0.2,0c0.8,3.6,2.1,7.5,3.4,10.9
		l5.3,14h6l6.8-31.8h-5.4l-2.4,11.1c-1,4.9-1.8,9-2.3,13.2h-0.1c-0.7-3.4-1.8-7.1-3.2-10.7l-5.3-13.6h-6.6l-6.8,31.8H509.2z
		 M485,442.4h5.8l6.8-31.8h-5.8L485,442.4z M454.7,442.4h5.8l2.9-13.5H475l1-4.8h-11.7l1.9-8.8h12.5l1-4.8h-18.4L454.7,442.4z
		 M434.3,414.7c5.8,0,7.6,5.7,6.3,11.7c-1.4,6.7-5.7,11.9-11.3,11.9c-5.6,0-7.7-5.2-6.3-11.7C424.3,420.1,428.5,414.7,434.3,414.7
		 M435.4,410.1c-9,0-16.6,6.9-18.6,16.7c-2,9.3,2.2,16.2,11.2,16.2c8.8,0,16.5-6.1,18.8-16.8C448.7,417.1,444.7,410.1,435.4,410.1
		 M393.5,415c0.6-0.1,1.8-0.3,3.6-0.3c3.8,0,5.9,1.6,5.1,5.1c-0.7,3.2-3.6,5.2-7.5,5.2h-3.4L393.5,415z M381.9,442.4h5.8l2.8-13.1
		h2.9c3.3,0.1,4.5,1.4,4.5,5.6c0.1,4,0.3,6.6,0.5,7.5h6c-0.4-1.2-0.5-4.9-0.6-8.9c-0.2-3.1-1.1-5.3-3.1-6.1l0-0.1
		c3.2-1.1,6.6-3.9,7.5-8c0.6-2.7,0.1-4.9-1.4-6.4c-1.7-1.8-4.7-2.5-9.3-2.5c-3.4,0-6.7,0.3-8.9,0.7L381.9,442.4z M360.7,415.1
		c0.6-0.1,1.8-0.3,3.4-0.3c4,0,6.1,1.9,5.3,5.4c-0.8,3.7-3.9,5.8-8.2,5.8c-1.2,0-2.1,0-2.8-0.2L360.7,415.1z M349.2,442.4h5.7
		l2.6-12c0.7,0.1,1.7,0.2,2.8,0.2c4.1,0,8-1.1,10.8-3.4c2.1-1.7,3.6-4.2,4.3-7.2c0.6-3-0.1-5.5-1.6-7c-1.7-1.7-4.6-2.6-8.8-2.6
		c-3.9,0-6.9,0.3-9,0.7L349.2,442.4z M316.3,432.2c3.2,0,6.1-2.5,6.8-5.6c0.7-3.2-1.3-5.6-4.4-5.6c-3.1,0-6.2,2.5-6.8,5.6
		C311.2,429.7,313.2,432.2,316.3,432.2L316.3,432.2z M260.3,440.9c1.5,1,4.8,2,8.1,2c8.2,0,13-4.5,14.1-9.6c1-4.6-1.1-7.4-6.2-9.4
		c-3.9-1.7-5.5-2.8-5-5.2c0.4-1.8,2.4-3.8,6.1-3.8c3,0,5,0.9,6,1.5l2.4-4.7c-1.5-0.9-3.9-1.6-7.3-1.6c-6.9,0-12.1,4-13.2,9.2
		c-1,4.6,1.8,7.4,6.6,9.2c3.7,1.5,5.1,2.9,4.5,5.3c-0.6,2.6-3,4.3-6.7,4.3c-3,0-5.6-0.9-7.3-2L260.3,440.9z M227.5,410.6l-3.9,18.2
		c-2.1,10,1.8,14.1,9.1,14.1c7.6,0,13.6-4.3,15.7-14.2l3.9-18.2h-5.8l-3.9,18.5c-1.3,6.2-4.4,9.1-8.6,9.1c-3.9,0-5.9-2.9-4.6-9.1
		l3.9-18.5H227.5z M193.2,427.8h2.9c4,0,6.9,1.5,6.1,5.2c-0.8,3.9-4.4,5.3-8.2,5.3c-1.3,0-2.3,0-3-0.1L193.2,427.8z M196,414.9
		c0.6-0.1,1.6-0.2,3.4-0.2c3.7,0,5.7,1.4,5,4.3c-0.6,2.7-3.2,4.6-7.2,4.6h-3L196,414.9z M184.4,442.3c1.4,0.2,3.8,0.4,7,0.4
		c5.8,0,9.7-1,12.4-3c2.2-1.5,3.9-3.7,4.5-6.6c0.9-4.4-1.6-7-4.7-7.9l0-0.1c3.7-1.3,6.1-4,6.7-6.9c0.6-2.7-0.3-4.8-2-5.9
		c-1.8-1.5-4.4-2-8.7-2c-3.3,0-6.7,0.3-8.6,0.7L184.4,442.3z M162.7,442.4h5.8l6.8-31.8h-5.8L162.7,442.4z M129.5,442.4h5.8
		l2.9-13.5h11.7l1-4.8h-11.7l1.9-8.8h12.5l1-4.8h-18.3L129.5,442.4z M106.3,414.7c5.8,0,7.6,5.7,6.3,11.7
		c-1.4,6.7-5.7,11.9-11.3,11.9c-5.6,0-7.7-5.2-6.3-11.7C96.4,420.1,100.6,414.7,106.3,414.7 M107.4,410.1c-9,0-16.6,6.9-18.6,16.7
		c-2,9.3,2.2,16.2,11.2,16.2c8.8,0,16.5-6.1,18.8-16.8C120.7,417.1,116.7,410.1,107.4,410.1 M62.7,415c0.6-0.1,1.8-0.3,3.6-0.3
		c3.8,0,5.9,1.6,5.1,5.1c-0.7,3.2-3.6,5.2-7.5,5.2h-3.4L62.7,415z M51.1,442.4h5.7l2.8-13.1h2.9c3.3,0.1,4.5,1.4,4.5,5.6
		c0.1,4,0.3,6.6,0.5,7.5h6c-0.4-1.2-0.5-4.9-0.6-8.9c-0.1-3.1-1-5.3-3.1-6.1l0-0.1c3.2-1.1,6.6-3.9,7.5-8c0.6-2.7,0.1-4.9-1.4-6.4
		c-1.7-1.8-4.7-2.5-9.3-2.5c-3.4,0-6.7,0.3-8.9,0.7L51.1,442.4z M27.1,415.1c0.6-0.1,1.8-0.3,3.4-0.3c4,0,6.1,1.9,5.3,5.4
		c-0.8,3.7-3.9,5.8-8.2,5.8c-1.2,0-2.1,0-2.8-0.2L27.1,415.1z M15.5,442.4h5.8l2.5-12c0.7,0.1,1.7,0.2,2.8,0.2c4.1,0,8-1.1,10.8-3.4
		c2.1-1.7,3.6-4.2,4.3-7.2c0.6-3-0.1-5.5-1.6-7c-1.7-1.7-4.6-2.6-8.8-2.6c-3.9,0-6.9,0.3-9,0.7L15.5,442.4z"/>
	<path class="st3" d="M541.3,209.5c0,0-25.7,0-31.2,25.7l-27.3,128.6c0,0-5.5,25.7,20.2,25.7h77.1c0,0,25.7,0,31.2-25.7l27.3-128.6
		c0,0,5.5-25.7-20.2-25.7H541.3z"/>
</g>
</svg>
